<svg xmlns="http://www.w3.org/2000/svg" width="221.759" height="36.512" viewBox="0 0 221.759 36.512"><defs><style>.a{fill:#e50020;}.b{fill:#fff;}.c{fill:#004290;}</style></defs><g transform="translate(110.879 18.256)"><g transform="translate(-110.879 -18.256)"><path class="a" d="M18.273,0A18.256,18.256,0,1,0,36.411,18.256,18.256,18.256,0,0,0,18.273,0Z" transform="translate(0.1 0)"/><path class="b" d="M30.011,14.353H20.649V30.268H14.1V14.353H4.5V7.8H30.011v6.553Z" transform="translate(0.884 1.328)"/><g transform="translate(42.831 4.798)"><path class="c" d="M66.341,26.1V8.9c0-3.16.585-3.745,3.394-3.745V4.1H60.841L53,26.1h-.117l-7.606-22H36.5V5.153c2.809,0,3.394.585,3.394,3.745V26.1c0,3.16-.585,3.745-3.394,3.745V30.9h9.362V29.845c-2.926,0-3.394-.585-3.394-3.745V7.26h.117L50.894,30.9H53.7L62.128,7.26h.117V26.1c0,3.16-.585,3.745-3.394,3.745V30.9H69.734V29.845C66.926,29.845,66.341,29.26,66.341,26.1Z" transform="translate(-36.5 -4.1)"/><path class="c" d="M71.375,11.5c-5.149,0-8.075,2.809-8.075,8.66s3.511,9.947,9.479,9.947a15.33,15.33,0,0,0,5.383-1.053v-1.4a10.181,10.181,0,0,1-3.511.7c-5.5,0-7.021-5.5-7.021-9.479H78.513c0-3.277-1.053-7.255-7.021-7.255Zm-3.862,5.734c0-1.521.819-4.447,3.745-4.447s3.277,1.989,3.277,4.447Z" transform="translate(-31.938 -2.84)"/><path class="c" d="M98.771,12.385c-3.16,0-4.564,2.692-5.266,4.447h-.117V12.385l-5.734.819v-.351H82.738V6.3h-1.17c-.234,2.926-1.4,6.9-5.968,6.9v1.053h3.16V25.843c0,4.564,2.809,5.032,6.2,5.032a6.2,6.2,0,0,0,2.106-.351h9.245V29.7c-2.223,0-2.926-.7-2.926-3.394v-4.33c0-3.979,1.755-6.319,2.926-6.319s1.053.936,2.34.936a2.049,2.049,0,1,0,0-4.1ZM89.526,26.194c0,2.692-.7,3.394-2.926,3.394h-.819c-1.989,0-3.16-1.17-3.16-3.745V14.375h4.8c1.17.117,2.106.819,2.106,3.043Z" transform="translate(-29.844 -3.725)"/><path class="c" d="M105.009,11.5c-5.617,0-8.309,3.043-8.309,9.245s2.692,9.245,8.309,9.245,8.309-3.043,8.309-9.245S110.626,11.5,105.009,11.5Zm0,17.2c-3.394,0-4.1-3.862-4.1-7.958s.7-7.958,4.1-7.958,4.1,3.862,4.1,7.958S108.4,28.7,105.009,28.7Z" transform="translate(-26.252 -2.84)"/></g><g transform="translate(130.481 4.564)"><path class="a" d="M120.645,6.24H111.4V3.9h20.947V6.24H123.1V31.049h-2.457V6.24Z" transform="translate(-111.4 -3.9)"/><path class="a" d="M126.134,17c0-1.287-.234-4.1-.234-5.032h2.34c0,1.287.117,2.809.117,3.043a6.319,6.319,0,0,1,5.617-3.511l1.287.234-.234,2.223h-.819c-3.979,0-5.734,2.809-5.734,6.2v9.6h-2.34V17Z" transform="translate(-108.932 -2.606)"/><path class="a" d="M148.711,22.366a54.179,54.179,0,0,0,.351,7.372h-2.106a17.083,17.083,0,0,1-.234-2.926H146.6a6.436,6.436,0,0,1-6.2,3.277c-3.043,0-6.2-1.521-6.2-5.266s6.319-5.968,9.83-5.968h2.692v-.936c0-3.043-2.106-4.33-5.032-4.33a7.957,7.957,0,0,0-5.383,1.989l-1.287-1.521a10.3,10.3,0,0,1,6.787-2.457c4.33,0,7.021,1.872,7.021,6.436v4.33Zm-4.564-1.4c-3.862,0-7.606.936-7.606,3.979s2.106,3.277,3.979,3.277c4.915,0,6.2-3.16,6.2-6.085v-1.17Z" transform="translate(-107.519 -2.589)"/><path class="a" d="M148.834,17c0-1.287-.234-4.1-.234-5.032h2.34c0,1.287.117,2.809.117,3.043h.117A6.67,6.67,0,0,1,157.26,11.5c5.5,0,6.787,3.745,6.787,7.606V29.639h-2.34v-10.3c0-2.926-.819-5.617-4.447-5.617s-6.085,2.34-6.085,7.255v8.894h-2.34V17Z" transform="translate(-105.067 -2.607)"/><path class="a" d="M164.806,25.192a5.734,5.734,0,0,0,5.149,2.926c1.989,0,4.1-1.17,4.1-3.277,0-4.915-10.532-1.4-10.532-8.192,0-3.394,3.16-5.149,6.085-5.149s5.149,1.053,6.2,3.277l-2.106,1.17a4.33,4.33,0,0,0-4.213-2.457c-1.638,0-3.745,1.053-3.745,2.809,0,4.8,10.532,1.053,10.532,8.192,0,3.628-3.043,5.5-6.436,5.5s-5.734-1.17-7.138-3.628l1.989-1.4Z" transform="translate(-102.667 -2.606)"/><path class="a" d="M176.085,13.277h2.34v17.67h-2.34Zm1.17-8.777A1.755,1.755,0,1,1,175.5,6.255,1.755,1.755,0,0,1,177.255,4.5Z" transform="translate(-100.488 -3.798)"/><path class="a" d="M190.834,14.855H185.8V26.324a2.223,2.223,0,0,0,2.457,2.457,6.787,6.787,0,0,0,2.574-.585l.234,2.106a10.181,10.181,0,0,1-3.043.585c-3.277,0-4.564-1.989-4.564-4.564V14.855H179.6V12.749h3.862V7.6h2.34v5.149h5.032Z" transform="translate(-99.79 -3.27)"/></g></g></g></svg>