<!-- Generated by IcoMoon.io -->
<svg version="1.1" xmlns="http://www.w3.org/2000/svg" width="16" height="16" viewBox="0 0 16 16">
<title>accessible-gray</title>
<path fill="#8a8b8a" d="M4.96 4.907c1.355 0 2.453-1.098 2.453-2.453s-1.098-2.453-2.453-2.453c-1.355 0-2.453 1.098-2.453 2.453v0c0 0.002-0 0.004-0 0.007 0 1.351 1.095 2.447 2.447 2.447 0.002 0 0.005 0 0.007-0h-0zM4.96 1.067c0.766 0 1.387 0.621 1.387 1.387s-0.621 1.387-1.387 1.387c-0.766 0-1.387-0.621-1.387-1.387v0c-0-0.003-0-0.006-0-0.009 0-0.761 0.617-1.377 1.377-1.377 0.003 0 0.007 0 0.010 0h-0zM13.973 15.013l-1.947-2.96c-0.084-0.138-0.23-0.231-0.399-0.24l-0.001-0-4.773-0.373-1.627-3.76c-0.049-0.102-0.077-0.221-0.077-0.347 0-0.147 0.038-0.284 0.106-0.404l-0.002 0.004c0.122-0.226 0.331-0.391 0.58-0.452l0.006-0.001c0.049-0.010 0.105-0.016 0.163-0.016 0.392 0 0.722 0.264 0.822 0.623l0.001 0.006 0.747 1.92c0.089 0.205 0.289 0.346 0.523 0.346 0.061 0 0.119-0.010 0.174-0.027l-0.004 0.001 2.373-0.88c0.211-0.076 0.36-0.275 0.36-0.509 0-0.298-0.242-0.54-0.54-0.54-0.069 0-0.136 0.013-0.197 0.037l0.004-0.001-1.893 0.693-0.533-1.413c-0.249-0.774-0.962-1.325-1.804-1.325-0.145 0-0.286 0.016-0.422 0.047l0.013-0.002c-0.893 0.178-1.558 0.955-1.558 1.888 0 0.134 0.014 0.265 0.040 0.391l-0.002-0.012c-1.279 0.805-2.116 2.209-2.116 3.808 0 2.477 2.008 4.485 4.485 4.485 2.019 0 3.726-1.334 4.289-3.169l0.008-0.032 0.507 0.027 1.787 2.747c0.095 0.145 0.257 0.24 0.44 0.24 0.005 0 0.009-0 0.014-0l-0.001 0c0.003 0 0.007 0 0.011 0 0.104 0 0.202-0.030 0.285-0.081l-0.002 0.001c0.146-0.094 0.242-0.256 0.242-0.44 0-0.104-0.030-0.201-0.083-0.282l0.001 0.002zM6.48 14.933c-1.886-0.006-3.413-1.536-3.413-3.423 0-1.147 0.564-2.162 1.429-2.783l0.010-0.007 1.493 3.44c0.079 0.18 0.25 0.306 0.452 0.32l0.002 0 3.253 0.24c-0.512 1.306-1.761 2.213-3.223 2.213-0.001 0-0.003 0-0.004 0h0z"></path>
</svg>
