<!-- Generated by IcoMoon.io -->
<svg version="1.1" xmlns="http://www.w3.org/2000/svg" width="16" height="16" viewBox="0 0 16 16">
<title>add-value-gray</title>
<path fill="#8a8b8a" d="M13.161 5.734c0 0 0 0 0 0-0.211 0-0.382 0.171-0.382 0.382 0 0 0 0.001 0 0.001v-0 7.453c-0.001 0.844-0.685 1.528-1.529 1.529h-8.793c-0.844-0.001-1.528-0.685-1.529-1.529v-9.176c0.001-0.844 0.685-1.528 1.529-1.529h6.881c0.003 0 0.007 0 0.011 0 0.211 0 0.382-0.171 0.382-0.382s-0.171-0.382-0.382-0.382c-0.004 0-0.008 0-0.012 0l0.001-0h-6.881c-1.266 0.001-2.292 1.028-2.294 2.294v9.176c0.001 1.266 1.027 2.292 2.293 2.294h8.793c1.266-0.001 2.292-1.027 2.294-2.293v-7.454c0-0 0-0.001 0-0.001 0-0.211-0.171-0.382-0.382-0.382h-0zM15.454 2.101h-1.911v-1.719c0-0.003 0-0.007 0-0.011 0-0.211-0.171-0.382-0.382-0.382s-0.382 0.171-0.382 0.382c0 0.004 0 0.008 0 0.012l-0-0.001v1.719h-1.887c-0.206 0.006-0.371 0.175-0.371 0.382s0.165 0.376 0.371 0.382l0.001 0h1.887v1.72c-0 0.003-0 0.007-0 0.011 0 0.211 0.171 0.382 0.382 0.382s0.382-0.171 0.382-0.382c0-0.004-0-0.008-0-0.012l0 0.001v-1.719h1.912c0.206-0.006 0.371-0.175 0.371-0.382s-0.165-0.376-0.371-0.382l-0.001-0z"></path>
<path fill="#8a8b8a" d="M7.065 8.667c-1.003-0.29-1.285-0.803-1.221-1.153 0.057-0.318 0.417-0.638 1.090-0.638 0.016-0.001 0.034-0.001 0.053-0.001 0.493 0 0.906 0.343 1.013 0.804l0.001 0.007c0.054 0.179 0.217 0.306 0.41 0.306 0.027 0 0.053-0.002 0.079-0.007l-0.003 0c0.184-0.019 0.326-0.173 0.326-0.36 0-0.024-0.002-0.048-0.007-0.071l0 0.002c-0.165-0.732-0.764-1.288-1.507-1.386l-0.009-0.001v-0.644c-0.009-0.208-0.18-0.374-0.389-0.374s-0.38 0.165-0.389 0.373l-0 0.001v0.644c-0.778 0.129-1.375 0.598-1.49 1.228-0.116 0.639 0.279 1.539 1.784 1.975 0.792 0.229 1.221 0.597 1.151 0.984-0.060 0.332-0.515 0.677-1.171 0.677-1.124 0-1.205-0.54-1.208-0.641-0.015-0.207-0.187-0.37-0.397-0.37-0.009 0-0.017 0-0.026 0.001l0.001-0c-0.007-0-0.014-0.001-0.022-0.001-0.209 0-0.379 0.164-0.389 0.371l-0 0.001c0 0.448 0.34 1.271 1.767 1.371v0.522c0.009 0.208 0.18 0.374 0.389 0.374s0.38-0.165 0.389-0.373l0-0.001v-0.569c0.778-0.16 1.365-0.643 1.473-1.245 0.054-0.291 0.106-1.283-1.7-1.805z"></path>
</svg>
