<!-- Generated by IcoMoon.io -->
<svg version="1.1" xmlns="http://www.w3.org/2000/svg" width="16" height="16" viewBox="0 0 16 16">
<title>alerts-white</title>
<path fill="#fff" d="M15.692 11.744l-5.465-9.716c-0.551-0.979-1.314-1.518-2.148-1.518s-1.597 0.539-2.148 1.518l-5.465 9.716c-0.549 0.976-0.615 1.918-0.185 2.653s1.283 1.14 2.403 1.14h10.79c1.12 0 1.974-0.405 2.403-1.14s0.364-1.677-0.185-2.653zM15.202 14.178c-0.265 0.452-0.935 0.704-1.729 0.704h-10.789c-0.794 0-1.127-0.261-1.642-0.704s-0.389-1.31 0-2.001l5.491-9.715c0.387-0.689 1.044-1.262 1.545-1.262s1.242 0.573 1.63 1.261l5.494 9.715c0.156 0.29 0.247 0.635 0.247 1.001s-0.091 0.71-0.253 1.012l0.006-0.012z"></path>
<path fill="#fff" d="M8.863 10.389v-5.307c0-0.004 0-0.008 0-0.013 0-0.272-0.22-0.492-0.492-0.492s-0.492 0.22-0.492 0.492c0 0.005 0 0.009 0 0.014l-0-0.001v5.307c0.007 0.266 0.225 0.479 0.492 0.479s0.485-0.213 0.492-0.479l0-0.001z"></path>
<path fill="#fff" d="M9.067 12.381c0-0.385-0.312-0.697-0.697-0.697s-0.697 0.312-0.697 0.697c0 0.385 0.312 0.697 0.697 0.697v0c0.385-0 0.697-0.312 0.697-0.697v-0z"></path>
</svg>
