<!-- Generated by IcoMoon.io -->
<svg version="1.1" xmlns="http://www.w3.org/2000/svg" width="16" height="16" viewBox="0 0 16 16">
<title>arrow-left-white</title>
<path fill="#fff" d="M-0.172 7.573l5.486-5.486c0.108-0.108 0.257-0.174 0.421-0.174 0.329 0 0.596 0.267 0.596 0.596 0 0.165-0.067 0.314-0.175 0.422v0l-4.47 4.471h13.714c0.333 0 0.602 0.27 0.602 0.602s-0.27 0.602-0.602 0.602h-13.714l4.473 4.473c0.112 0.106 0.181 0.256 0.181 0.422s-0.069 0.315-0.181 0.421l-0 0c-0.112 0.107-0.263 0.172-0.43 0.172s-0.318-0.066-0.43-0.172l-5.485-5.485c-0.107-0.104-0.173-0.249-0.173-0.409 0-0.008 0-0.015 0-0.023l-0 0.001c0.007-0.169 0.077-0.321 0.187-0.434l-0 0z"></path>
</svg>
