<!-- Generated by IcoMoon.io -->
<svg version="1.1" xmlns="http://www.w3.org/2000/svg" width="16" height="16" viewBox="0 0 16 16">
<title>avatar-gray</title>
<path fill="#8a8b8a" d="M8 16c4.418 0 8-3.582 8-8s-3.582-8-8-8c-4.418 0-8 3.582-8 8v0c0.005 4.416 3.584 7.995 8 8h0zM8 14.769c-0.001 0-0.003 0-0.004 0-1.871 0-3.564-0.762-4.786-1.992l-0-0c1.224-1.23 2.919-1.991 4.791-1.991s3.567 0.761 4.791 1.991l0 0c-1.223 1.23-2.915 1.991-4.786 1.991-0.002 0-0.004 0-0.005 0h0zM5.538 7.094c0-1.359 1.102-2.461 2.461-2.461s2.461 1.102 2.461 2.461c0 1.359-1.102 2.461-2.461 2.461h-0c-1.358-0.003-2.459-1.103-2.462-2.461v-0zM8 1.231c0.001 0 0.003 0 0.004 0 3.736 0 6.765 3.029 6.765 6.765 0 1.432-0.445 2.76-1.204 3.853l0.015-0.022c-0.877-0.855-1.952-1.511-3.149-1.892l-0.057-0.016c0.809-0.682 1.319-1.696 1.319-2.828 0-2.039-1.653-3.693-3.693-3.693s-3.693 1.653-3.693 3.693c0 1.133 0.51 2.146 1.313 2.824l0.006 0.005c-1.254 0.397-2.329 1.053-3.208 1.91l0.002-0.002c-0.744-1.071-1.189-2.399-1.189-3.831 0-3.736 3.029-6.765 6.765-6.765 0.002 0 0.003 0 0.005 0h-0z"></path>
</svg>
