<!-- Generated by IcoMoon.io -->
<svg version="1.1" xmlns="http://www.w3.org/2000/svg" width="16" height="16" viewBox="0 0 16 16">
<title>bus-gray</title>
<path fill="#8a8b8a" d="M12.048 0h-8.032c-1.673 0-2.677 0.923-2.677 2.462v13.539h1.339v-1.844h10.71v1.846h1.339v-13.541c0-1.539-1.004-2.462-2.677-2.462zM13.387 12.924h-10.71v-10.462c0.079-0.683 0.644-1.211 1.337-1.231l0.002-0h8.032c0.695 0.020 1.26 0.548 1.338 1.224l0.001 0.006zM5.355 11.693v-1.231h-1.339v1.231zM12.048 10.462h-1.339v1.231h1.339zM0 9.231h16.064v-1.232h-16.064zM8.701 8.923v-4.618h-1.339v4.618zM1.339 4.923h13.387v-1.231h-13.387z"></path>
</svg>
