<!-- Generated by IcoMoon.io -->
<svg version="1.1" xmlns="http://www.w3.org/2000/svg" width="16" height="16" viewBox="0 0 16 16">
<title>bus-stop-color</title>
<path fill="#f68b1f" d="M6.372 1.167c-0.567 0-1.067 0.467-1.067 1.067v9.6c0 0.467 0.3 0.867 0.7 1v1.5c0 0.2 0.167 0.367 0.367 0.367h1.767c0.2 0 0.367-0.167 0.367-0.367v-1.433h4.267v1.433c0 0.2 0.167 0.367 0.367 0.367h1.767c0.2 0 0.367-0.167 0.367-0.367v-1.5c0.433-0.167 0.7-0.567 0.7-1v-9.6c0-0.6-0.467-1.067-1.067-1.067-0.2 0-0.367 0.167-0.367 0.367s0.167 0.367 0.367 0.367c0.2 0 0.367 0.167 0.367 0.333 0 0 0 0 0 0v1.433h-9.267v-1.433c0-0.2 0.167-0.367 0.333-0.367 0 0 0 0 0 0h7.133c0.2 0 0.367-0.167 0.367-0.367s-0.133-0.333-0.333-0.333v0h-7.133zM9.739 2.4c-0.2 0-0.333 0.2-0.333 0.367 0 0.2 0.167 0.333 0.367 0.333h1.767c0.2 0 0.367-0.167 0.367-0.367s-0.167-0.367-0.367-0.367v0h-1.8c0 0.033 0 0.033 0 0.033v0zM6.006 4.367h4.3v3.567h-4.3v-3.567zM11.006 4.367h4.267v3.567h-4.267v-3.567zM6.006 8.667h9.267v3.2c0 0.2-0.167 0.367-0.333 0.367 0 0 0 0 0 0h-8.567c-0.2 0-0.367-0.167-0.367-0.333 0 0 0 0 0 0v-3.233zM7.806 9.2c-0.7 0-1.233 0.567-1.233 1.233s0.567 1.233 1.233 1.233 1.233-0.567 1.233-1.233c0-0.7-0.567-1.233-1.233-1.233v0zM13.506 9.2c-0.7 0-1.233 0.567-1.233 1.233s0.567 1.233 1.233 1.233 1.233-0.567 1.233-1.233c0-0.7-0.533-1.233-1.233-1.233v0zM7.806 9.9c0.3 0 0.533 0.233 0.533 0.533s-0.233 0.533-0.533 0.533-0.533-0.233-0.533-0.533v0c0-0.3 0.233-0.533 0.533-0.533 0 0 0 0 0 0zM13.506 9.9c0.3 0 0.533 0.233 0.533 0.533s-0.233 0.533-0.533 0.533-0.533-0.233-0.533-0.533v0c0-0.3 0.233-0.533 0.533-0.533 0 0 0 0 0 0v0zM6.739 12.933h1.067v1.067h-1.067v-1.067zM13.506 12.933h1.067v1.067h-1.067v-1.067z"></path>
<path fill="#0097d0" d="M1.7 9.341v4.667h-0.533c0 0-0.033 0-0.033 0-0.2 0-0.367 0.167-0.333 0.367 0 0.2 0.167 0.367 0.367 0.333 0 0 0 0 0.033 0h1.767c0.2 0 0.367-0.167 0.367-0.367s-0.167-0.367-0.367-0.367v0h-0.567v-4.667c0.9-0.133-1.633-0.133-0.7 0.033z"></path>
<path fill="#0097d0" d="M1.7 14.008h-0.533c0 0-0.033 0-0.033 0-0.2 0-0.367 0.167-0.333 0.367s0.167 0.367 0.367 0.333c0 0 0 0 0.033 0h1.767c0.2 0 0.367-0.167 0.367-0.367s-0.167-0.367-0.367-0.367v0h-1.267z"></path>
<path fill="#fff" d="M1 5.508h2.1c0.567 0 1 0.433 1 1v2.1c0 0.567-0.433 1-1 1h-2.1c-0.567 0-1-0.433-1-1v-2.1c0-0.567 0.433-1 1-1z"></path>
<path fill="#0097d0" d="M3.1 9.608h-2.1c-0.567 0-1-0.433-1-1v-2.1c0-0.567 0.433-1 1-1h2.1c0.567 0 1 0.433 1 1v2.1c0 0.567-0.433 1-1 1zM1 6.174c-0.2 0-0.333 0.133-0.333 0.333v2.1c0 0.2 0.133 0.333 0.333 0.333h2.1c0.2 0 0.333-0.133 0.333-0.333v-2.1c0-0.2-0.133-0.333-0.333-0.333h-2.1z"></path>
</svg>
