<!-- Generated by IcoMoon.io -->
<svg version="1.1" xmlns="http://www.w3.org/2000/svg" width="14" height="16" viewBox="0 0 14 16">
<title>bus-broadcast-color</title>
<path fill="#0053a0" d="M5.539 2.45c0.001-0.093-0.034-0.186-0.105-0.257s-0.164-0.106-0.257-0.105h-0c-0.814 0.002-1.628 0.314-2.25 0.936-0.623 0.623-0.935 1.438-0.936 2.255v-0c0 0.093 0.035 0.186 0.106 0.256 0.142 0.142 0.371 0.142 0.513 0 0.071-0.071 0.106-0.164 0.106-0.257v0c0.001-0.632 0.243-1.263 0.725-1.745s1.112-0.723 1.742-0.725h-0c0.091-0.001 0.181-0.036 0.25-0.105s0.105-0.16 0.105-0.252v0z"></path>
<path fill="#0053a0" d="M0.732 5.289c0.001-1.14 0.437-2.28 1.307-3.151 0.869-0.869 2.006-1.304 3.145-1.307h-0c0.092-0.001 0.183-0.036 0.253-0.106 0.142-0.142 0.142-0.372 0-0.513-0.070-0.070-0.161-0.105-0.253-0.106h0c-1.322 0.003-2.643 0.509-3.652 1.518-1.011 1.011-1.517 2.335-1.518 3.66v-0c0.003 0.088 0.038 0.175 0.105 0.242 0.14 0.14 0.368 0.14 0.509 0 0.066-0.066 0.101-0.15 0.105-0.236l-0 0z"></path>
<path fill="#0097d0" d="M11.69 4.528h-5.287c-1.1 0-1.762 0.662-1.762 1.765v9.707h0.881v-1.322h7.050v1.324h0.881v-9.709c0-1.103-0.66-1.765-1.763-1.765zM12.571 13.794h-7.050v-7.5c0.032-0.474 0.408-0.85 0.878-0.883l0.003-0h5.287c0.473 0.033 0.848 0.409 0.881 0.879l0 0.003zM7.284 12.911v-0.882h-0.881v0.882zM11.69 12.029h-0.881v0.882h0.881zM3.759 11.146h10.574v-0.882h-10.574zM9.487 10.926v-3.309h-0.881v3.309zM4.64 8.059h8.812v-0.882h-8.812z"></path>
</svg>
