<!-- Generated by IcoMoon.io -->
<svg version="1.1" xmlns="http://www.w3.org/2000/svg" width="16" height="16" viewBox="0 0 16 16">
<title>calendar-gray</title>
<path fill="#8a8b8a" d="M13.63 2.123h-2.123v-1.573c-0.011-0.295-0.253-0.531-0.55-0.531s-0.539 0.235-0.55 0.53l-0 0.001v1.573h-5.119v-1.573c-0.011-0.295-0.253-0.531-0.55-0.531s-0.539 0.235-0.55 0.53l-0 0.001v1.573h-2.123c-1.14 0.003-2.064 0.926-2.067 2.066v9.744c0.003 1.14 0.926 2.064 2.066 2.067h11.564c1.14-0.003 2.064-0.926 2.067-2.066v-9.744c-0.003-1.14-0.927-2.063-2.066-2.066h-0zM2.067 3.223h2.123v0.759c0.011 0.295 0.253 0.531 0.55 0.531s0.539-0.235 0.55-0.53l0-0.001v-0.759h5.099v0.759c0.011 0.295 0.253 0.531 0.55 0.531s0.539-0.235 0.55-0.53l0-0.001v-0.759h2.123c0.533 0.002 0.964 0.434 0.967 0.966v1.839h-13.479v-1.839c0.002-0.533 0.434-0.965 0.967-0.967h0zM13.63 14.901h-11.563c-0.533-0.002-0.964-0.434-0.967-0.966v-6.788h13.497v6.787c-0.002 0.533-0.434 0.965-0.967 0.967h-0z"></path>
<path fill="#8a8b8a" d="M4.227 7.943c-1.057 0-1.915 0.857-1.915 1.915s0.857 1.915 1.915 1.915v0c0.006 0 0.014 0 0.021 0 1.046 0 1.893-0.848 1.893-1.893 0-0.001 0-0.002 0-0.003v0c0-0.002 0-0.005 0-0.008 0-1.060-0.856-1.919-1.914-1.925h-0.001zM4.227 10.692c-0.452-0.006-0.815-0.373-0.815-0.825 0-0.003 0-0.006 0-0.009v0c-0-0.007-0-0.015-0-0.023 0-0.45 0.365-0.815 0.815-0.815s0.815 0.365 0.815 0.815c0 0.008-0 0.016-0 0.024l0-0.001c0 0.003 0 0.006 0 0.009 0 0.452-0.363 0.819-0.814 0.825h-0.001z"></path>
<path fill="#8a8b8a" d="M5.043 12.607h-1.649c-0.006-0-0.012-0-0.019-0-0.304 0-0.55 0.246-0.55 0.55s0.246 0.55 0.55 0.55c0.007 0 0.013-0 0.020-0l-0.001 0h1.649c0.006 0 0.012 0 0.019 0 0.304 0 0.55-0.246 0.55-0.55s-0.246-0.55-0.55-0.55c-0.007 0-0.013 0-0.020 0l0.001-0z"></path>
<path fill="#8a8b8a" d="M8.95 12.607h-1.651c-0.006-0-0.012-0-0.019-0-0.304 0-0.55 0.246-0.55 0.55s0.246 0.55 0.55 0.55c0.007 0 0.013-0 0.020-0l-0.001 0h1.651c0.295-0.011 0.531-0.253 0.531-0.55s-0.235-0.539-0.53-0.55l-0.001-0z"></path>
<path fill="#8a8b8a" d="M8.95 9.327h-1.651c-0.006-0-0.012-0-0.019-0-0.304 0-0.55 0.246-0.55 0.55s0.246 0.55 0.55 0.55c0.007 0 0.013-0 0.020-0l-0.001 0h1.651c0.295-0.011 0.531-0.253 0.531-0.55s-0.235-0.539-0.53-0.55l-0.001-0z"></path>
<path fill="#8a8b8a" d="M12.853 12.607h-1.649c-0.295 0.011-0.531 0.253-0.531 0.55s0.235 0.539 0.53 0.55l0.001 0h1.649c0.006 0 0.012 0 0.019 0 0.304 0 0.55-0.246 0.55-0.55s-0.246-0.55-0.55-0.55c-0.007 0-0.013 0-0.020 0l0.001-0z"></path>
<path fill="#8a8b8a" d="M12.853 9.327h-1.649c-0.295 0.011-0.531 0.253-0.531 0.55s0.235 0.539 0.53 0.55l0.001 0h1.649c0.006 0 0.012 0 0.019 0 0.304 0 0.55-0.246 0.55-0.55s-0.246-0.55-0.55-0.55c-0.007 0-0.013 0-0.020 0l0.001-0z"></path>
</svg>
