<!-- Generated by IcoMoon.io -->
<svg version="1.1" xmlns="http://www.w3.org/2000/svg" width="16" height="16" viewBox="0 0 16 16">
<title>car-color</title>
<path fill="#0097d0" d="M3.645 7.655c-0 0-0 0-0.001 0-0.731 0-1.323 0.592-1.323 1.323s0.592 1.323 1.323 1.323c0.731 0 1.323-0.592 1.323-1.323 0-0 0-0.001 0-0.001v0c-0.001-0.73-0.593-1.321-1.323-1.322h-0zM3.645 9.59c-0.338-0.001-0.611-0.274-0.611-0.612s0.274-0.612 0.612-0.612c0.338 0 0.611 0.273 0.612 0.611v0c-0 0.338-0.275 0.613-0.613 0.613h-0z"></path>
<path fill="#0097d0" d="M12.37 7.655c-0.731 0-1.323 0.593-1.323 1.323s0.592 1.323 1.323 1.323 1.323-0.592 1.323-1.323c0-0 0-0.001 0-0.001v0c-0.001-0.73-0.594-1.322-1.324-1.322h-0zM12.37 9.59c-0.338-0.001-0.611-0.274-0.611-0.612s0.274-0.612 0.612-0.612c0.338 0 0.611 0.273 0.612 0.611v0c-0 0.338-0.275 0.613-0.613 0.613h-0z"></path>
<path fill="#0097d0" d="M9.315 9.874h-2.704c-0.003-0-0.007-0-0.011-0-0.196 0-0.356 0.159-0.356 0.356s0.159 0.356 0.356 0.356c0.004 0 0.008-0 0.011-0l-0.001 0h2.704c0.192-0.006 0.345-0.163 0.345-0.355s-0.153-0.349-0.344-0.355l-0.001-0z"></path>
<path fill="#0097d0" d="M10.213 8.732h-4.5c-0.003-0-0.007-0-0.011-0-0.196 0-0.356 0.159-0.356 0.356s0.159 0.356 0.356 0.356c0.004 0 0.008-0 0.011-0l-0.001 0h4.5c0.003 0 0.007 0 0.011 0 0.196 0 0.356-0.159 0.356-0.356s-0.159-0.356-0.356-0.356c-0.004 0-0.008 0-0.011 0l0.001-0z"></path>
<path fill="#0097d0" d="M10.213 7.591h-4.5c-0.003-0-0.007-0-0.011-0-0.196 0-0.356 0.159-0.356 0.356s0.159 0.356 0.356 0.356c0.004 0 0.008-0 0.011-0l-0.001 0h4.5c0.003 0 0.007 0 0.011 0 0.196 0 0.356-0.159 0.356-0.356s-0.159-0.356-0.356-0.356c-0.004 0-0.008 0-0.011 0l0.001-0z"></path>
<path fill="#a5cf4c" d="M14.892 4.905h-1.248l-0.531-1.171c-0.477-1.030-1.502-1.732-2.691-1.733h-4.828c-1.189 0.001-2.214 0.703-2.684 1.715l-0.008 0.018-0.528 1.163h-1.258c-0.616 0-1.116 0.5-1.117 1.116v0c0 0.617 0.5 1.117 1.117 1.118h0.254c-0.159 0.409-0.252 0.881-0.254 1.376v4.503c0 0.591 0.479 1.069 1.069 1.070h0.792c0.59-0 1.069-0.478 1.070-1.068v-1.151h7.919v1.15c0.001 0.591 0.48 1.069 1.070 1.070h0.792c0.59-0.001 1.068-0.479 1.068-1.068v-4.504c-0.001-0.498-0.095-0.974-0.266-1.411l0.009 0.027h0.25c0.612 0 1.109-0.497 1.109-1.109s-0.497-1.109-1.109-1.109v0zM3.55 4.027c0.363-0.782 1.141-1.315 2.044-1.316h4.828c0.903 0.001 1.681 0.534 2.038 1.302l0.006 0.014 1.151 2.535q-1.895-0.111-3.8-0.148l1.29-1.29c0.070-0.065 0.113-0.158 0.113-0.26 0-0.196-0.159-0.356-0.356-0.356-0.103 0-0.195 0.044-0.26 0.113l-0 0-1.78 1.78q-1.459-0.013-2.918 0.018l1.295-1.295c0.070-0.065 0.113-0.158 0.113-0.26 0-0.196-0.159-0.356-0.356-0.356-0.103 0-0.195 0.044-0.26 0.113l-0 0-1.786 1.785c-0.010 0.011-0.020 0.023-0.029 0.036l-0.001 0.001c-0.828 0.026-1.654 0.067-2.478 0.113zM0.711 6.013c0.001-0.224 0.182-0.405 0.406-0.405h0.933l-0.367 0.812h-0.567c-0.224-0-0.406-0.182-0.406-0.406 0-0 0-0 0-0v0zM3.337 13.010c-0.001 0.198-0.161 0.357-0.359 0.357-0 0-0 0-0 0h-0.792c-0.197-0-0.357-0.16-0.357-0.357v-1.15h1.509zM8.017 11.149h-6.188v-2.642c0.002-0.441 0.093-0.86 0.257-1.241l-0.008 0.021c1.76-0.115 3.815-0.18 5.886-0.18 2.103 0 4.191 0.067 6.26 0.2l-0.282-0.015c0.154 0.359 0.244 0.776 0.246 1.213v2.643h-6.171zM14.187 13.010c-0 0.197-0.16 0.357-0.357 0.357h-0.792c-0 0-0 0-0.001 0-0.198 0-0.358-0.16-0.359-0.357v-1.15h1.509v1.15zM15.174 6.294c-0.072 0.072-0.171 0.117-0.281 0.117h-0.564l-0.361-0.796h0.925c0.219 0.001 0.397 0.179 0.397 0.398 0 0.109-0.044 0.208-0.116 0.28l0-0z"></path>
</svg>
