<!-- Generated by IcoMoon.io -->
<svg version="1.1" xmlns="http://www.w3.org/2000/svg" width="16" height="16" viewBox="0 0 16 16">
<title>chevron-up-gray</title>
<path fill="#8a8b8a" d="M0.731 12c0.001 0 0.002 0 0.003 0 0.197 0 0.377-0.076 0.51-0.2l-0 0 6.756-6.161 6.76 6.161c0.134 0.124 0.313 0.2 0.51 0.2 0.005 0 0.011-0 0.016-0l-0.001 0c0.297-0.002 0.552-0.181 0.663-0.437l0.002-0.005c0.030-0.073 0.048-0.158 0.048-0.247 0-0.199-0.088-0.377-0.227-0.498l-0.001-0.001-7.264-6.619c-0.134-0.12-0.311-0.193-0.505-0.193s-0.372 0.073-0.506 0.193l0.001-0.001-7.264 6.619c-0.143 0.122-0.232 0.301-0.232 0.502 0 0.091 0.019 0.178 0.052 0.257l-0.002-0.004c0.116 0.257 0.37 0.433 0.666 0.433 0.005 0 0.011-0 0.016-0l-0.001 0z"></path>
</svg>
