<!-- Generated by IcoMoon.io -->
<svg version="1.1" xmlns="http://www.w3.org/2000/svg" width="16" height="16" viewBox="0 0 16 16">
<title>chevron-right-blue</title>
<path fill="#0097d0" d="M4 15.269c0-0.001 0-0.002 0-0.003 0-0.197 0.076-0.377 0.2-0.51l-0 0 6.161-6.756-6.161-6.76c-0.124-0.134-0.2-0.313-0.2-0.51 0-0.005 0-0.011 0-0.016l-0 0.001c0.001-0.296 0.179-0.551 0.434-0.663l0.005-0.002c0.073-0.030 0.158-0.048 0.247-0.048 0.199 0 0.377 0.088 0.498 0.227l0.001 0.001 6.622 7.264c0.119 0.133 0.191 0.31 0.191 0.503s-0.072 0.37-0.192 0.504l0.001-0.001-6.619 7.264c-0.122 0.143-0.301 0.232-0.502 0.232-0.091 0-0.178-0.019-0.257-0.052l0.004 0.002c-0.257-0.116-0.433-0.37-0.433-0.666 0-0.004 0-0.008 0-0.012v0.001z"></path>
</svg>
