<!-- Generated by IcoMoon.io -->
<svg version="1.1" xmlns="http://www.w3.org/2000/svg" width="16" height="16" viewBox="0 0 16 16">
<title>chevron-down-blue</title>
<path fill="#0097d0" d="M15.27 4c-0.001 0-0.002 0-0.003 0-0.197 0-0.377 0.076-0.51 0.2l0-0-6.759 6.157-6.759-6.158c-0.134-0.124-0.313-0.2-0.51-0.2-0.005 0-0.010 0-0.015 0l0.001-0c-0.296 0.001-0.551 0.179-0.663 0.434l-0.002 0.005c-0.030 0.073-0.048 0.158-0.048 0.247 0 0.199 0.088 0.377 0.227 0.498l0.001 0.001 7.264 6.619c0.134 0.12 0.311 0.193 0.505 0.193s0.372-0.073 0.506-0.193l-0.001 0.001 7.264-6.619c0.143-0.122 0.232-0.301 0.232-0.502 0-0.091-0.019-0.178-0.052-0.257l0.002 0.004c-0.117-0.255-0.37-0.429-0.664-0.429-0.006 0-0.011 0-0.017 0l0.001-0z"></path>
</svg>
