<!-- Generated by IcoMoon.io -->
<svg version="1.1" xmlns="http://www.w3.org/2000/svg" width="16" height="16" viewBox="0 0 16 16">
<title>circle-gray-bus</title>
<path fill="#8a8b8a" d="M8 0c4.418 0 8 3.582 8 8s-3.582 8-8 8c-4.418 0-8-3.582-8-8v0c0-4.418 3.582-8 8-8v0z"></path>
<path fill="#fff" d="M10.553 2.593h-4.872c-0.041-0.004-0.088-0.006-0.136-0.006-0.825 0-1.494 0.669-1.494 1.494 0 0.048 0.002 0.095 0.007 0.142l-0-0.006v8.932h0.812v-1.218h6.496v1.218h0.812v-8.932c0.004-0.041 0.006-0.088 0.006-0.136 0-0.825-0.669-1.494-1.494-1.494-0.048 0-0.095 0.002-0.142 0.007l0.006-0zM11.365 11.118h-6.496v-6.9c0.031-0.436 0.376-0.781 0.809-0.812l0.003-0h4.872c0.436 0.031 0.781 0.376 0.812 0.809l0 0.003zM6.493 10.306v-0.812h-0.812v0.812zM10.553 9.494h-0.812v0.812h0.812zM3.245 8.682h9.744v-0.812h-9.744zM8.523 8.479v-3.045h-0.811v3.045zM4.056 5.84h8.121v-0.812h-8.12z"></path>
</svg>
