<!-- Generated by IcoMoon.io -->
<svg version="1.1" xmlns="http://www.w3.org/2000/svg" width="16" height="16" viewBox="0 0 16 16">
<title>circle-gray-outline-bus</title>
<path fill="#8a8b8a" d="M8 16c-4.4 0-8-3.6-8-8s3.6-8 8-8 8 3.6 8 8-3.6 8-8 8zM8 0.667c-4.033 0-7.333 3.3-7.333 7.333s3.3 7.333 7.333 7.333 7.333-3.3 7.333-7.333-3.3-7.333-7.333-7.333z"></path>
<path fill="#8a8b8a" d="M10.535 2.606h-4.867c-0.833-0.067-1.533 0.533-1.633 1.367 0 0.1 0 0.167 0 0.267v8.933h0.8v-1.233h6.5v1.233h0.8v-8.933c0.1-0.833-0.5-1.567-1.333-1.633-0.067 0-0.167 0-0.267 0zM11.369 11.139h-6.5v-6.9c0.033-0.433 0.367-0.8 0.8-0.833h4.867c0.433 0.033 0.767 0.367 0.8 0.8v6.933zM6.469 10.306v-0.8h-0.8v0.8h0.8zM10.535 9.506h-0.8v0.8h0.8v-0.8zM3.235 8.706h9.733v-0.8h-9.733v0.8zM8.502 8.506v-3.067h-0.8v3.033l0.8 0.033zM4.035 5.839h8.133v-0.8h-8.133v0.8z"></path>
</svg>
