<!-- Generated by IcoMoon.io -->
<svg version="1.1" xmlns="http://www.w3.org/2000/svg" width="16" height="16" viewBox="0 0 16 16">
<title>circle-plus-blue</title>
<path fill="#0097d0" d="M3.92 7.468h-0.007c-0.016-0.002-0.035-0.003-0.054-0.003-0.268 0-0.49 0.199-0.525 0.458l-0 0.003c0.035 0.261 0.256 0.461 0.524 0.461 0.019 0 0.039-0.001 0.057-0.003l-0.002 0h8.123c0.016 0.002 0.035 0.003 0.054 0.003 0.268 0 0.49-0.199 0.525-0.458l0-0.003c-0.035-0.261-0.256-0.461-0.524-0.461-0.019 0-0.039 0.001-0.057 0.003l0.002-0h-8.115z"></path>
<path fill="#0097d0" d="M8.462 3.733v-0.007c0.002-0.018 0.004-0.039 0.004-0.060 0-0.262-0.192-0.48-0.444-0.518l-0.003-0c-0.254 0.039-0.447 0.257-0.447 0.519 0 0.021 0.001 0.042 0.004 0.063l-0-0.002v8.123c-0.002 0.018-0.003 0.039-0.003 0.060 0 0.262 0.192 0.48 0.444 0.518l0.003 0c0.254-0.039 0.447-0.257 0.447-0.519 0-0.021-0.001-0.042-0.004-0.063l0 0.002v-0.009z"></path>
<path fill="#0097d0" d="M7.999 0c-4.418 0-8 3.582-8 8s3.582 8 8 8c4.418 0 8-3.582 8-8v0c-0.005-4.416-3.584-7.995-8-8h-0zM7.999 0.818c3.922 0.122 7.071 3.263 7.208 7.169l0 0.013c-0.134 3.928-3.282 7.078-7.196 7.215l-0.013 0c-3.927-0.138-7.075-3.288-7.208-7.203l-0-0.013c0.138-3.919 3.287-7.059 7.197-7.182l0.012-0z"></path>
</svg>
