<!-- Generated by IcoMoon.io -->
<svg version="1.1" xmlns="http://www.w3.org/2000/svg" width="16" height="16" viewBox="0 0 16 16">
<title>circle-gray-outline-train</title>
<path fill="#8a8b8a" d="M8.059 4.186l-1.92 0.88c-0.2 0.16-0.52 0.56-0.52 1v2.080c0 0.56 0.4 1 0.92 1h2.88c0.52 0 0.92-0.44 0.92-1v-2.080c0-0.44-0.32-0.84-0.52-1.040l-1.76-0.84zM8.059 3.306l2.24 1.080c0 0 0.88 0.72 0.88 1.72v2.080c0 1-0.76 1.8-1.72 1.8h-2.92c-0.96 0-1.72-0.8-1.72-1.8v-2.12c0-1 0.88-1.72 0.88-1.72l2.36-1.040z"></path>
<path fill="#8a8b8a" d="M7.118 7.807c0 0.243-0.197 0.44-0.44 0.44s-0.44-0.197-0.44-0.44c0-0.243 0.197-0.44 0.44-0.44s0.44 0.197 0.44 0.44z"></path>
<path fill="#8a8b8a" d="M10.038 7.807c0 0.243-0.197 0.44-0.44 0.44s-0.44-0.197-0.44-0.44c0-0.243 0.197-0.44 0.44-0.44s0.44 0.197 0.44 0.44z"></path>
<path fill="#8a8b8a" d="M7.598 2.167h0.8v1.44h-0.8v-1.44z"></path>
<path fill="#8a8b8a" d="M8.036 2.633c-0.12 0-0.32 0.080-0.48 0.2h-0.040l-0.040 0.040c0 0-0.4 0.2-0.68 0.44v0 0c-0.52 0.44-0.6 0.64-0.6 0.72l0.040-0.040 1.44-0.56 0.28-0.12 0.28 0.12 1.44 0.56 0.12 0.040c0-0.12-0.16-0.36-0.52-0.68-0.36-0.28-0.72-0.48-0.72-0.48l-0.080-0.040-0.040-0.040c-0.12-0.040-0.32-0.16-0.4-0.16zM8.036 1.833c0.44 0 0.88 0.32 0.88 0.32s1.68 0.88 1.68 1.92v1.56l-1.16-0.88-1.44-0.56-1.44 0.56-1.16 0.88v-1.56c0-0.52 0.4-0.96 0.88-1.36 0.36-0.32 0.84-0.56 0.84-0.56s0.48-0.32 0.92-0.32z"></path>
<path fill="#8a8b8a" d="M8.558 5.647c0 0.309-0.251 0.56-0.56 0.56s-0.56-0.251-0.56-0.56c0-0.309 0.251-0.56 0.56-0.56s0.56 0.251 0.56 0.56z"></path>
<path fill="#8a8b8a" d="M5.398 9.407l-1.16 2.88h0.56l1.16-2.88h-0.56z"></path>
<path fill="#8a8b8a" d="M4.918 12.447h-0.92l1.28-3.2h0.92l-1.28 3.2zM4.478 12.127h0.24l1.040-2.6h-0.28l-1 2.6z"></path>
<path fill="#8a8b8a" d="M10.598 9.407l1.16 2.88h-0.56l-1.16-2.88h0.56z"></path>
<path fill="#8a8b8a" d="M11.998 12.447h-0.92l-1.28-3.2h0.92l1.28 3.2zM11.278 12.127h0.24l-1.040-2.6h-0.24l1.040 2.6z"></path>
<path fill="#8a8b8a" d="M5.118 10.567h5.48v0.44h-5.48v-0.44z"></path>
<path fill="#8a8b8a" d="M10.758 11.127h-5.8v-0.72h5.8v0.72zM5.238 10.847h5.2v-0.12h-5.2v0.12z"></path>
<path fill="#8a8b8a" d="M4.798 11.847h6.36v0.44h-6.36v-0.44z"></path>
<path fill="#8a8b8a" d="M11.318 12.447h-6.64v-0.72h6.68v0.72zM4.958 12.127h6.080v-0.12h-6.080v0.12z"></path>
<path fill="#8a8b8a" d="M8 16c-4.4 0-8-3.6-8-8s3.6-8 8-8c4.4 0 8 3.6 8 8s-3.6 8-8 8zM8 0.8c-3.96 0-7.2 3.24-7.2 7.2s3.24 7.2 7.2 7.2c3.96 0 7.2-3.24 7.2-7.2s-3.24-7.2-7.2-7.2z"></path>
</svg>
