<!-- Generated by IcoMoon.io -->
<svg version="1.1" xmlns="http://www.w3.org/2000/svg" width="16" height="16" viewBox="0 0 16 16">
<title>circle-green-dollar</title>
<path fill="#a5cf4c" d="M7.998 0.853c0.001 0 0.001 0 0.002 0 3.947 0 7.147 3.2 7.147 7.147s-3.2 7.147-7.147 7.147c-3.947 0-7.147-3.2-7.147-7.147v0c0.005-3.945 3.201-7.142 7.145-7.147h0.001zM7.998 0c-4.418 0-8 3.582-8 8s3.582 8 8 8c4.418 0 8-3.582 8-8v0c0-4.418-3.582-8-8-8v0z"></path>
<path fill="#a5cf4c" d="M8.448 7.56c-1.25-0.421-1.6-1.164-1.52-1.673 0.072-0.461 0.52-0.926 1.358-0.926 0.675 0.018 1.228 0.518 1.329 1.167l0.001 0.008c0.047 0.252 0.265 0.44 0.527 0.44 0.028 0 0.055-0.002 0.082-0.006l-0.003 0c0.237-0.051 0.413-0.26 0.413-0.509 0-0.041-0.005-0.080-0.013-0.118l0.001 0.003c-0.153-1.004-0.904-1.797-1.873-2.011l-0.016-0.003v-0.932c0.002-0.016 0.003-0.034 0.003-0.052 0-0.269-0.218-0.488-0.488-0.488s-0.488 0.218-0.488 0.488c0 0.018 0.001 0.037 0.003 0.054l-0-0.002v0.935c-0.938 0.141-1.677 0.854-1.853 1.767l-0.002 0.014c-0.144 0.926 0.347 2.232 2.223 2.865 0.986 0.333 1.52 0.866 1.434 1.426-0.181 0.577-0.71 0.988-1.336 0.988-0.044 0-0.087-0.002-0.129-0.006l0.005 0c-1.4 0-1.501-0.783-1.506-0.93 0-0.002 0-0.005 0-0.007 0-0.291-0.234-0.527-0.524-0.531h-0c-0.284 0.004-0.512 0.235-0.512 0.52 0 0.006 0 0.013 0 0.019l-0-0.001c0 0.65 0.423 1.843 2.2 1.991v0.756c-0.002 0.016-0.003 0.034-0.003 0.052 0 0.269 0.218 0.488 0.488 0.488s0.488-0.218 0.488-0.488c0-0.018-0.001-0.037-0.003-0.054l0 0.002v-0.822c0.923-0.179 1.642-0.888 1.833-1.792l0.003-0.015c0.065-0.424 0.131-1.862-2.118-2.619z"></path>
</svg>
