<!-- Generated by IcoMoon.io -->
<svg version="1.1" xmlns="http://www.w3.org/2000/svg" width="16" height="16" viewBox="0 0 16 16">
<title>circle-red-outline-pin</title>
<path fill="#a5cf4c" d="M8 16c-4.4 0-8-3.6-8-8s3.6-8 8-8v0c2.12 0 4.16 0.84 5.64 2.36 1.52 1.48 2.36 3.52 2.36 5.64 0 4.4-3.6 8-8 8zM8 0.8c-3.96 0-7.2 3.24-7.2 7.2s3.24 7.2 7.2 7.2c3.96 0 7.2-3.24 7.2-7.2 0-1.92-0.76-3.76-2.12-5.080-1.36-1.36-3.16-2.12-5.080-2.12v0z"></path>
<path fill="#ed1b2e" d="M8 16c-4.4 0-8-3.6-8-8s3.6-8 8-8v0c2.12 0 4.16 0.84 5.64 2.36 1.52 1.48 2.36 3.52 2.36 5.64 0 4.4-3.6 8-8 8zM8 0.8c-3.96 0-7.2 3.24-7.2 7.2s3.24 7.2 7.2 7.2c3.96 0 7.2-3.24 7.2-7.2 0-1.92-0.76-3.76-2.12-5.080-1.36-1.36-3.16-2.12-5.080-2.12v0z"></path>
<path fill="#8a8b8a" d="M8.049 4.555c-1.758 0.062-3.146 1.551-3.085 3.309 0.014 0.4 0.108 0.796 0.282 1.19 0.302 0.63 0.683 1.216 1.141 1.72 0.462 0.624 1.004 1.245 1.423 1.791 0.084 0.117 0.285 0.15 0.402 0.066 0.040-0.001 0.039-0.041 0.079-0.043v0c0.46-0.576 1.077-1.238 1.654-1.898 0.501-0.538 0.92-1.152 1.217-1.803 0.146-0.405 0.252-0.809 0.236-1.249-0.102-1.757-1.591-3.145-3.349-3.083zM8.070 5.155c1.439-0.050 2.638 1.068 2.688 2.506 0 0 0 0 0 0 0.013 0.36-0.056 0.682-0.165 1.006 0 0 0 0 0.001 0.040v0c-0.299 0.611-0.68 1.144-1.143 1.64-0.461 0.536-0.961 1.114-1.423 1.65-0.378-0.507-0.796-1.012-1.213-1.518s-0.756-1.014-1.056-1.603c0 0 0 0 0 0v0c-0.132-0.355-0.185-0.714-0.196-1.033-0.090-1.437 1.068-2.638 2.506-2.688 0 0 0 0 0 0zM8.111 6.313c-0.799 0.028-1.416 0.69-1.388 1.489s0.69 1.416 1.489 1.388 1.416-0.69 1.388-1.489c-0.028-0.799-0.69-1.416-1.489-1.388zM8.13 6.873c0.48-0.017 0.893 0.369 0.91 0.848s-0.369 0.893-0.848 0.91c-0.48 0.017-0.893-0.369-0.91-0.848s0.369-0.893 0.848-0.91c0 0 0 0 0 0z"></path>
</svg>
