<!-- Generated by IcoMoon.io -->
<svg version="1.1" xmlns="http://www.w3.org/2000/svg" width="16" height="16" viewBox="0 0 16 16">
<title>circle-white-dollar</title>
<path fill="#fff" d="M7.999 0.853c0 0 0.001 0 0.001 0 3.947 0 7.147 3.2 7.147 7.147s-3.2 7.147-7.147 7.147c-3.947 0-7.147-3.2-7.147-7.147v0c0.005-3.945 3.201-7.141 7.145-7.147h0.001zM7.999 0c-4.418 0-8 3.582-8 8s3.582 8 8 8c4.418 0 8-3.582 8-8v0c0-4.418-3.582-8-8-8v0z"></path>
<path fill="#fff" d="M8.481 7.567c-1.382-0.4-1.77-1.106-1.683-1.589 0.079-0.438 0.575-0.88 1.502-0.88 0.022-0.001 0.047-0.002 0.073-0.002 0.68 0 1.249 0.473 1.396 1.108l0.002 0.010c0.075 0.246 0.299 0.422 0.565 0.422 0.037 0 0.073-0.003 0.109-0.010l-0.004 0.001c0.253-0.027 0.448-0.239 0.448-0.497 0-0.033-0.003-0.066-0.009-0.098l0.001 0.003c-0.228-1.010-1.053-1.776-2.077-1.912l-0.013-0.001v-0.885c-0.015-0.285-0.249-0.51-0.536-0.51s-0.522 0.225-0.536 0.509l-0 0.001v0.888c-1.073 0.177-1.896 0.824-2.053 1.692-0.159 0.88 0.384 2.121 2.459 2.722 1.091 0.316 1.682 0.822 1.586 1.355-0.083 0.458-0.71 0.933-1.614 0.933-1.549 0-1.66-0.744-1.667-0.884-0.020-0.287-0.257-0.512-0.547-0.512-0.011 0-0.023 0-0.034 0.001l0.002-0c-0.009-0.001-0.020-0.001-0.031-0.001-0.288 0-0.522 0.226-0.536 0.511l-0 0.001c0 0.617 0.467 1.751 2.433 1.891v0.718c0.015 0.285 0.249 0.51 0.536 0.51s0.522-0.225 0.536-0.509l0-0.001v-0.782c1.073-0.221 1.881-0.886 2.031-1.716 0.077-0.401 0.15-1.767-2.339-2.487z"></path>
</svg>
