<!-- Generated by IcoMoon.io -->
<svg version="1.1" xmlns="http://www.w3.org/2000/svg" width="16" height="16" viewBox="0 0 16 16">
<title>circle-green-outline-pedestrian</title>
<path fill="#a5cf4c" d="M8 16c-4.4 0-8-3.6-8-8s3.6-8 8-8v0c2.12 0 4.16 0.84 5.64 2.36 1.52 1.48 2.36 3.52 2.36 5.64 0 4.4-3.6 8-8 8zM8 0.8c-3.96 0-7.2 3.24-7.2 7.2s3.24 7.2 7.2 7.2c3.96 0 7.2-3.24 7.2-7.2 0-1.92-0.76-3.76-2.12-5.080-1.36-1.36-3.16-2.12-5.080-2.12v0z"></path>
<path fill="#8a8b8a" d="M7.806 5.68c0.84 0 1.48-0.68 1.48-1.48s-0.64-1.52-1.48-1.52c-0.8 0-1.48 0.68-1.48 1.48 0 0.84 0.68 1.52 1.48 1.52zM7.806 3.44c0.4 0 0.76 0.32 0.76 0.76s-0.32 0.72-0.76 0.72-0.72-0.32-0.72-0.76c0 0 0 0 0 0 0-0.4 0.32-0.72 0.72-0.72z"></path>
<path fill="#8a8b8a" d="M5.206 9.040c0-1.64 1.32-3 3-3h0.36c0.2 0 0.36 0.16 0.36 0.36 0 0 0 0 0 0v0.36c0 0.84 0.68 1.48 1.48 1.48 0.2 0 0.36 0.16 0.36 0.36s-0.16 0.36-0.36 0.36c-0.56 0-1.080-0.2-1.48-0.56v0.96c0 0.2-0.16 0.36-0.36 0.36s-0.36-0.16-0.36-0.36v-2.6c-0.24 0-0.52 0.040-0.76 0.12v2.12c0 0.36 0.16 0.68 0.44 0.88l1.32 1.040c0.040 0.040 0.080 0.080 0.12 0.12l0.76 1.48c0.080 0.2 0 0.4-0.16 0.52-0.2 0.080-0.4 0-0.52-0.16l-0.72-1.4-0.6-0.48-0.24 0.72c0 0.040-0.040 0.12-0.080 0.16l-1.12 1.12c-0.16 0.16-0.4 0.16-0.52 0s-0.16-0.4 0-0.52l1.040-1.040 0.32-0.92h-0.040c-0.44-0.36-0.72-0.88-0.72-1.44v-1.68c-0.48 0.44-0.76 1.040-0.76 1.68 0 0.2-0.16 0.36-0.36 0.36s-0.4-0.2-0.4-0.4v0 0z"></path>
</svg>
