<!-- Generated by IcoMoon.io -->
<svg version="1.1" xmlns="http://www.w3.org/2000/svg" width="16" height="16" viewBox="0 0 16 16">
<title>circle-green-lrt</title>
<path fill="#008244" d="M16 8c0 4.418-3.582 8-8 8s-8-3.582-8-8c0-4.418 3.582-8 8-8s8 3.582 8 8z"></path>
<path fill="#fff" d="M6.197 12.403h3.593c0.023 0.001 0.050 0.002 0.077 0.002 0.938 0 1.701-0.751 1.72-1.685l0-0.002v-5.056c-0.016-0.935-0.778-1.687-1.716-1.687-0.028 0-0.057 0.001-0.085 0.002l0.004-0h-3.593c-0.023-0.001-0.050-0.002-0.077-0.002-0.938 0-1.701 0.751-1.72 1.685l-0 0.002v5.056c0.022 0.936 0.787 1.687 1.726 1.687 0.025 0 0.049-0.001 0.074-0.002l-0.003 0zM5.074 14.088h1.015l1.123-1.685h-1.015zM9.907 14.088h1.006l-1.123-1.685h-1.006zM7.993 10.718c0.47-0.018 0.85-0.379 0.898-0.839l0-0.004c-0.048-0.464-0.428-0.825-0.897-0.843l-0.002-0c-0.47 0.018-0.85 0.379-0.898 0.839l-0 0.004c0.048 0.464 0.428 0.825 0.897 0.843l0.002 0zM6.196 11.56c-0.028 0.003-0.061 0.005-0.093 0.005-0.445 0-0.806-0.361-0.806-0.806 0-0.015 0-0.030 0.001-0.044l-0 0.002v-5.056c-0.001-0.014-0.001-0.030-0.001-0.047 0-0.443 0.359-0.802 0.802-0.802 0.034 0 0.068 0.002 0.102 0.006l-0.004-0h3.593c0.030-0.004 0.065-0.006 0.1-0.006 0.442 0 0.8 0.358 0.8 0.8 0 0.017-0.001 0.034-0.002 0.051l0-0.002v5.056c0.001 0.015 0.002 0.032 0.002 0.049 0 0.442-0.358 0.8-0.8 0.8-0.035 0-0.070-0.002-0.104-0.007l0.004 0zM5.298 8.19h5.39v-0.843h-5.39zM7.544 3.976h0.898v-0.843h1.348v-0.842h-3.593v0.843h1.347z"></path>
</svg>
