<!-- Generated by IcoMoon.io -->
<svg version="1.1" xmlns="http://www.w3.org/2000/svg" width="16" height="16" viewBox="0 0 16 16">
<title>circle-red-bus</title>
<path fill="#ed1b2e" d="M16 8c0 4.418-3.582 8-8 8s-8-3.582-8-8c0-4.418 3.582-8 8-8s8 3.582 8 8z"></path>
<path fill="#fff" d="M10.19 3.009h-4.664c-0.039-0.004-0.084-0.006-0.13-0.006-0.79 0-1.43 0.64-1.43 1.43 0 0.046 0.002 0.091 0.006 0.136l-0-0.006v8.552h0.777v-1.166h6.219v1.166h0.778v-8.551c0.004-0.039 0.006-0.084 0.006-0.13 0-0.79-0.64-1.43-1.43-1.43-0.046 0-0.091 0.002-0.136 0.006l0.006-0zM10.967 11.172h-6.22v-6.608c0.029-0.417 0.36-0.748 0.775-0.777l0.003-0h4.664c0.417 0.029 0.748 0.36 0.777 0.775l0 0.003zM6.302 10.395v-0.778h-0.777v0.778zM10.19 9.617h-0.778v0.778h0.778zM3.193 8.84h9.329v-0.778h-9.329zM8.246 8.646v-2.915h-0.778v2.915zM3.97 6.119h7.774v-0.778h-7.774z"></path>
</svg>
