<!-- Generated by IcoMoon.io -->
<svg version="1.1" xmlns="http://www.w3.org/2000/svg" width="16" height="16" viewBox="0 0 16 16">
<title>circle-gray-train</title>
<path fill="#8a8b8a" d="M8 0c4.433 0 8 3.567 8 8s-3.567 8-8 8-8-3.567-8-8 3.567-8 8-8z"></path>
<path fill="#fff" d="M8.042 4.854l-1.9 0.833c-0.167 0.167-0.5 0.567-0.5 1v2.1c0 0.533 0.4 0.967 0.9 0.967h2.9c0.5 0 0.9-0.433 0.9-0.967v-2.067c0-0.433-0.333-0.833-0.5-1l-1.8-0.867zM8.075 3.92l2.267 1.067c0 0 0.867 0.733 0.867 1.7v2.1c0 1-0.767 1.8-1.733 1.8h-2.933c-0.967 0-1.733-0.8-1.733-1.8v-2.067c0-1 0.867-1.7 0.867-1.7l2.4-1.1z"></path>
<path fill="#fff" d="M7.125 8.421c0 0.239-0.194 0.433-0.433 0.433s-0.433-0.194-0.433-0.433c0-0.239 0.194-0.433 0.433-0.433s0.433 0.194 0.433 0.433z"></path>
<path fill="#fff" d="M10.025 8.421c0 0.239-0.194 0.433-0.433 0.433s-0.433-0.194-0.433-0.433c0-0.239 0.194-0.433 0.433-0.433s0.433 0.194 0.433 0.433z"></path>
<path fill="#fff" d="M7.492 2.754h1v1.467h-1v-1.467z"></path>
<path fill="#fff" d="M8.020 3.276c-0.1 0-0.3 0.1-0.433 0.2h-0.033l-0.067 0.033c0 0-0.4 0.2-0.667 0.433v0 0c-0.433 0.333-0.533 0.567-0.6 0.667v0l1.467-0.567 0.3-0.133 0.3 0.133 1.467 0.567c-0.033-0.133-0.167-0.333-0.5-0.6-0.333-0.3-0.7-0.467-0.733-0.467l-0.033-0.067-0.067-0.033c-0.067-0.067-0.3-0.167-0.4-0.167zM8.020 2.443c0.433 0 0.867 0.3 0.867 0.3s1.7 0.867 1.7 1.9v1.567l-1.167-0.867-1.433-0.533-1.433 0.567-1.167 0.867v-1.567c0-0.5 0.4-0.967 0.9-1.367 0.367-0.3 0.833-0.533 0.833-0.533s0.467-0.333 0.9-0.333z"></path>
<path fill="#fff" d="M8.559 6.254c0 0.313-0.254 0.567-0.567 0.567s-0.567-0.254-0.567-0.567c0-0.313 0.254-0.567 0.567-0.567s0.567 0.254 0.567 0.567z"></path>
<path fill="#fff" d="M5.392 10.021l-1.167 2.9h0.567l1.167-2.9h-0.567z"></path>
<path fill="#fff" d="M4.925 13.088h-0.933l1.3-3.233h0.933l-1.3 3.233zM4.459 12.754h0.233l1.033-2.567h-0.233l-1.033 2.567z"></path>
<path fill="#fff" d="M10.625 10.021l1.167 2.9h-0.567l-1.167-2.9h0.567z"></path>
<path fill="#fff" d="M12.025 13.088h-0.933l-1.3-3.233h0.933l1.3 3.233zM11.292 12.754h0.233l-1.033-2.567h-0.233l1.033 2.567z"></path>
<path fill="#fff" d="M5.092 11.188h5.533v0.433h-5.533v-0.433z"></path>
<path fill="#fff" d="M10.792 11.788h-5.867v-0.767h5.867v0.767zM5.259 11.454h5.2v-0.1h-5.2v0.1z"></path>
<path fill="#fff" d="M4.792 12.488h6.4v0.433h-6.4v-0.433z"></path>
<path fill="#fff" d="M11.359 13.088h-6.733v-0.767h6.733v0.767zM4.959 12.754h6.067v-0.1h-6.067v0.1z"></path>
</svg>
