<!-- Generated by IcoMoon.io -->
<svg version="1.1" xmlns="http://www.w3.org/2000/svg" width="16" height="16" viewBox="0 0 16 16">
<title>circle-blue-outline-question</title>
<path fill="#0097d0" d="M8 0.667c-0.99 0-1.951 0.194-2.854 0.576-0.873 0.369-1.657 0.898-2.331 1.572s-1.203 1.458-1.572 2.331c-0.382 0.904-0.576 1.864-0.576 2.854s0.194 1.951 0.576 2.854c0.369 0.873 0.898 1.658 1.572 2.331s1.458 1.203 2.331 1.572c0.904 0.382 1.864 0.576 2.854 0.576s1.951-0.194 2.854-0.576c0.873-0.369 1.658-0.898 2.331-1.572s1.203-1.458 1.572-2.331c0.382-0.904 0.576-1.864 0.576-2.854s-0.194-1.951-0.576-2.854c-0.369-0.873-0.898-1.657-1.572-2.331s-1.458-1.203-2.331-1.572c-0.904-0.382-1.864-0.576-2.854-0.576zM8 0c4.418 0 8 3.582 8 8s-3.582 8-8 8c-4.418 0-8-3.582-8-8s3.582-8 8-8z"></path>
<path fill="#0053a0" d="M8.528 4.035c-1.295 0.016-2.34 1.062-2.355 2.355l-0 0.001c0 0.217 0.176 0.393 0.393 0.393s0.393-0.176 0.393-0.393v0c0-0.867 0.703-1.57 1.57-1.57s1.57 0.703 1.57 1.57v0c0.006 0.681-0.362 1.033-0.846 1.472-0.268 0.226-0.507 0.469-0.722 0.732l-0.008 0.010c-0.237 0.301-0.382 0.685-0.386 1.103l-0 0.001v0.215c0 0.217 0.176 0.393 0.393 0.393s0.393-0.176 0.393-0.393v0-0.215c-0-0.003-0-0.006-0-0.009 0-0.238 0.086-0.457 0.228-0.626l-0.001 0.001c0.195-0.231 0.402-0.438 0.626-0.627l0.008-0.006c0.5-0.454 1.11-1.067 1.104-2.055 0-0.002 0-0.004 0-0.006-0.020-1.292-1.065-2.333-2.356-2.348l-0.001-0zM8.528 10.905c-0.325 0-0.589 0.264-0.589 0.589s0.264 0.589 0.589 0.589c0.325 0 0.589-0.264 0.589-0.589v0c-0-0.325-0.264-0.589-0.589-0.589v0z"></path>
</svg>
