<!-- Generated by IcoMoon.io -->
<svg version="1.1" xmlns="http://www.w3.org/2000/svg" width="16" height="16" viewBox="0 0 16 16">
<title>circle-gray-lrt</title>
<path fill="#8a8b8a" d="M16 8c0 4.418-3.582 8-8 8s-8-3.582-8-8c0-4.418 3.582-8 8-8s8 3.582 8 8z"></path>
<path fill="#fff" d="M6.362 12.37h3.678c0.023 0.001 0.050 0.002 0.077 0.002 0.961 0 1.743-0.769 1.762-1.726l0-0.002v-5.177c-0.016-0.958-0.797-1.728-1.757-1.728-0.029 0-0.058 0.001-0.087 0.002l0.004-0h-3.678c-0.023-0.001-0.050-0.002-0.077-0.002-0.961 0-1.743 0.769-1.762 1.726l-0 0.002v5.178c0.022 0.959 0.804 1.727 1.766 1.727 0.026 0 0.051-0.001 0.077-0.002l-0.004 0zM5.212 14.096h1.039l1.149-1.726h-1.039zM10.16 14.096h1.030l-1.149-1.726h-1.030zM8.201 10.644c0.481-0.018 0.87-0.388 0.919-0.859l0-0.004c-0.049-0.475-0.439-0.845-0.918-0.863l-0.002-0c-0.481 0.018-0.87 0.388-0.919 0.859l-0 0.004c0.049 0.475 0.439 0.844 0.918 0.863l0.002 0zM6.362 11.507c-0.029 0.004-0.062 0.006-0.095 0.006-0.456 0-0.825-0.37-0.825-0.825 0-0.015 0-0.030 0.001-0.045l-0 0.002v-5.178c-0.001-0.014-0.001-0.031-0.001-0.048 0-0.453 0.368-0.821 0.821-0.821 0.035 0 0.070 0.002 0.104 0.007l-0.004-0h3.679c0.031-0.004 0.068-0.007 0.104-0.007 0.451 0 0.817 0.366 0.817 0.817 0 0.019-0.001 0.037-0.002 0.055l0-0.002v5.178c0.001 0.014 0.001 0.031 0.001 0.048 0 0.453-0.368 0.821-0.821 0.821-0.035 0-0.070-0.002-0.104-0.007l0.004 0zM5.442 8.055h5.517v-0.863h-5.517zM7.742 3.741h0.92v-0.863h1.379v-0.863h-3.679v0.863h1.379z"></path>
</svg>
