<svg xmlns="http://www.w3.org/2000/svg" xmlns:xlink="http://www.w3.org/1999/xlink" width="24" height="23.999" viewBox="0 0 24 23.999"><defs><style>.a{fill:none;}.b{clip-path:url(#a);}.c{fill:#0097d0;}</style><clipPath id="a"><rect class="a" width="24" height="23.999"/></clipPath></defs><g class="b"><path class="c" d="M5.6,10.251H5.589a.794.794,0,0,0-.869.687.793.793,0,0,0,.869.687H17.773a.794.794,0,0,0,.869-.687.793.793,0,0,0-.869-.687H5.6Z" transform="translate(0.28 0.951)"/><path class="c" d="M12,0A12,12,0,1,0,24,12,12.013,12.013,0,0,0,12,0Zm0,1.227A11.157,11.157,0,0,1,22.813,12,11.2,11.2,0,0,1,12,22.823,11.2,11.2,0,0,1,1.187,12,11.159,11.159,0,0,1,12,1.227Z" transform="translate(-0.001)"/></g></svg>
