<!-- Generated by IcoMoon.io -->
<svg version="1.1" xmlns="http://www.w3.org/2000/svg" width="16" height="16" viewBox="0 0 16 16">
<title>circle-green-outline-lrt</title>
<path fill="#008244" d="M8 16c-4.4 0-8-3.6-8-8s3.6-8 8-8c4.4 0 8 3.6 8 8s-3.6 8-8 8zM8 0.8c-3.96 0-7.2 3.24-7.2 7.2s3.24 7.2 7.2 7.2c3.96 0 7.2-3.24 7.2-7.2s-3.24-7.2-7.2-7.2z"></path>
<path fill="#008244" d="M6.359 11.182h3.24c0.84 0.040 1.56-0.64 1.6-1.48 0 0 0-0.040 0-0.040v-4.56c0-0.84-0.72-1.52-1.56-1.52 0 0-0.040 0-0.040 0h-3.24c-0.84-0.040-1.56 0.64-1.6 1.48 0 0 0 0.040 0 0.040v4.56c0 0.84 0.72 1.52 1.6 1.52 0 0 0 0 0 0zM5.359 12.662h0.92l1-1.52h-0.92l-1 1.52zM9.719 12.662h0.92l-1-1.52h-0.92l1 1.52zM7.999 9.662c0.44 0 0.76-0.36 0.8-0.76-0.040-0.4-0.4-0.76-0.8-0.76-0.44 0-0.76 0.36-0.8 0.76 0.040 0.4 0.36 0.72 0.8 0.76zM6.359 10.422c-0.4 0.040-0.76-0.24-0.8-0.64 0-0.040 0-0.080 0-0.12v-4.56c0-0.4 0.28-0.76 0.68-0.76 0.040 0 0.080 0 0.12 0h3.24c0.4-0.040 0.76 0.24 0.8 0.64 0 0.040 0 0.080 0 0.12v4.56c0.040 0.4-0.28 0.72-0.68 0.76-0.040 0-0.080 0-0.12 0h-3.24zM5.559 7.382h4.84v-0.76h-4.84v0.76zM7.599 3.582h0.8v-0.76h1.2v-0.76h-3.24v0.76h1.2l0.040 0.76z"></path>
</svg>
