<!-- Generated by IcoMoon.io -->
<svg version="1.1" xmlns="http://www.w3.org/2000/svg" width="16" height="16" viewBox="0 0 16 16">
<title>clock-gray</title>
<path fill="#8a8b8a" d="M7.999 0c-4.418 0-8 3.582-8 8s3.582 8 8 8c4.418 0 8-3.582 8-8v0c-0.005-4.416-3.584-7.995-8-8h-0zM7.999 1.143c0 0 0 0 0.001 0 3.787 0 6.857 3.070 6.857 6.857s-3.070 6.857-6.857 6.857c-3.787 0-6.857-3.070-6.857-6.857 0-0 0-0 0-0.001v0c0-0.002 0-0.005 0-0.008 0-3.782 3.066-6.849 6.849-6.849 0.003 0 0.006 0 0.008 0h-0z"></path>
<path fill="#8a8b8a" d="M7.994 2.279c-0.313 0.003-0.565 0.257-0.566 0.571v5.151c-0 0.001-0 0.002-0 0.004 0 0.19 0.093 0.358 0.236 0.462l0.002 0.001 4 2.857c0.092 0.067 0.208 0.107 0.333 0.107 0.316 0 0.572-0.256 0.572-0.572 0-0.191-0.093-0.36-0.237-0.464l-0.002-0.001-3.761-2.686v-4.86c0-0.316-0.256-0.571-0.571-0.571v0h-0.006z"></path>
</svg>
