<!-- Generated by IcoMoon.io -->
<svg version="1.1" xmlns="http://www.w3.org/2000/svg" width="16" height="16" viewBox="0 0 16 16">
<title>close-blue</title>
<path fill="#0097d0" opacity="0.999" d="M11.999 11.242l-3.242-3.242 3.242-3.242c0.209-0.209 0.209-0.549 0-0.758s-0.549-0.209-0.758 0v0l-3.242 3.242-3.242-3.242c-0.209-0.209-0.549-0.209-0.758 0s-0.209 0.549 0 0.758v0l3.242 3.242-3.242 3.242c-0.209 0.209-0.209 0.549 0 0.758s0.549 0.209 0.758 0v0l3.242-3.242 3.242 3.242c0.209 0.209 0.549 0.209 0.758 0s0.209-0.549 0-0.758v0z"></path>
</svg>
