<!-- Generated by IcoMoon.io -->
<svg version="1.1" xmlns="http://www.w3.org/2000/svg" width="16" height="16" viewBox="0 0 16 16">
<title>close-gray</title>
<path fill="#8a8b8a" d="M0.5 15.27c0-0.001 0-0.002 0-0.003 0-0.197 0.076-0.377 0.2-0.51l-0 0 6.161-6.757-6.161-6.76c-0.124-0.134-0.2-0.313-0.2-0.51 0-0.005 0-0.011 0-0.016l-0 0.001c0.001-0.296 0.179-0.551 0.434-0.663l0.005-0.002c0.073-0.030 0.158-0.048 0.247-0.048 0.199 0 0.377 0.088 0.498 0.227l0.001 0.001 6.622 7.264c0.119 0.133 0.191 0.31 0.191 0.503s-0.072 0.37-0.192 0.504l0.001-0.001-6.619 7.264c-0.122 0.143-0.301 0.232-0.502 0.232-0.091 0-0.178-0.019-0.257-0.052l0.004 0.002c-0.257-0.116-0.433-0.37-0.433-0.666 0-0.004 0-0.007 0-0.011v0.001z"></path>
<path fill="#8a8b8a" d="M15.5 15.269c0-0.001 0-0.002 0-0.003 0-0.197-0.076-0.377-0.2-0.51l0 0-6.161-6.756 6.161-6.76c0.124-0.134 0.2-0.313 0.2-0.51 0-0.005-0-0.011-0-0.016l0 0.001c-0.002-0.297-0.181-0.552-0.437-0.663l-0.005-0.002c-0.073-0.030-0.158-0.048-0.247-0.048-0.199 0-0.377 0.088-0.498 0.227l-0.001 0.001-6.619 7.264c-0.12 0.134-0.193 0.311-0.193 0.505s0.073 0.372 0.193 0.506l-0.001-0.001 6.619 7.264c0.122 0.143 0.301 0.232 0.502 0.232 0.091 0 0.178-0.019 0.257-0.052l-0.004 0.002c0.257-0.116 0.433-0.37 0.433-0.666 0-0.005-0-0.011-0-0.016l0 0.001z"></path>
</svg>
