<!-- Generated by IcoMoon.io -->
<svg version="1.1" xmlns="http://www.w3.org/2000/svg" width="16" height="16" viewBox="0 0 16 16">
<title>date-time-color</title>
<path fill="#0097d0" d="M14.22 7.454v-3.995c-0.001-1.022-0.83-1.85-1.852-1.85-0.001 0-0.001 0-0.002 0h-0.13v-0.74c0-0.205-0.166-0.371-0.371-0.371s-0.371 0.166-0.371 0.371v0 0.721h-1.632v-0.721c0-0.205-0.166-0.371-0.371-0.371s-0.371 0.166-0.371 0.371v0 0.721h-1.631v-0.721c0-0.205-0.166-0.371-0.371-0.371s-0.371 0.166-0.371 0.371v0 0.721h-1.648v-0.721c0-0.205-0.166-0.371-0.371-0.371s-0.371 0.166-0.371 0.371v0 0.721h-1.633v-0.721c0-0.205-0.166-0.371-0.371-0.371s-0.371 0.166-0.371 0.371v0 0.721h-0.13c-0.001 0-0.002 0-0.002 0-1.022 0-1.85 0.828-1.852 1.849v7.472c0.001 1.022 0.83 1.85 1.852 1.85 0.001 0 0.002 0 0.002 0h5.525c0.696 1.629 2.285 2.75 4.135 2.75 2.476 0 4.484-2.007 4.484-4.484 0-1.455-0.693-2.748-1.766-3.567l-0.011-0.008zM1.853 12.023c-0 0-0.001 0-0.001 0-0.613 0-1.11-0.497-1.111-1.11v-7.454c0.001-0.613 0.498-1.11 1.111-1.11 0 0 0.001 0 0.001 0h0.13v0.536c0 0.205 0.166 0.371 0.371 0.371s0.371-0.166 0.371-0.371v0-0.536h1.632v0.536c0 0.205 0.166 0.371 0.371 0.371s0.371-0.166 0.371-0.371v0-0.536h1.632v0.536c0 0.205 0.166 0.371 0.371 0.371s0.371-0.166 0.371-0.371v0-0.536h1.65v0.536c0 0.205 0.166 0.371 0.371 0.371s0.371-0.166 0.371-0.371v0-0.536h1.632v0.536c0 0.205 0.166 0.371 0.371 0.371s0.371-0.166 0.371-0.371v0-0.536h0.13c0 0 0.001 0 0.001 0 0.613 0 1.11 0.497 1.111 1.11v3.533c-0.587-0.294-1.278-0.467-2.010-0.467-0.953 0-1.837 0.292-2.569 0.791l0.016-0.010c-0.064-0.048-1.037 0.703-0.833 0.703v0c-0.684 0.774-1.102 1.797-1.102 2.918 0 0.389 0.050 0.767 0.145 1.126l-0.007-0.031zM11.513 14.779c-2.052-0.015-3.709-1.682-3.709-3.736 0-2.064 1.673-3.736 3.736-3.736 2.057 0 3.726 1.662 3.736 3.717v0.001c0 0.004 0 0.009 0 0.014 0 2.066-1.675 3.741-3.741 3.741-0.008 0-0.016-0-0.024-0h0.001z"></path>
<path fill="#f68b1f" d="M5.763 4.378h-0.672c-0.212 0-0.383 0.172-0.383 0.383s0.172 0.383 0.383 0.383h0.672c0.212 0 0.383-0.172 0.383-0.383s-0.172-0.383-0.383-0.383v0z"></path>
<path fill="#f68b1f" d="M3.075 4.378h-0.672c-0.212 0-0.383 0.172-0.383 0.383s0.172 0.383 0.383 0.383h0.672c0.212 0 0.383-0.172 0.383-0.383s-0.172-0.383-0.383-0.383v0z"></path>
<path fill="#f68b1f" d="M7.778 5.144h0.672c0.212 0 0.383-0.172 0.383-0.383s-0.172-0.383-0.383-0.383h-0.672c-0.212 0-0.383 0.172-0.383 0.383s0.172 0.383 0.383 0.383v0z"></path>
<path fill="#f68b1f" d="M10.466 5.144h0.672c0.212 0 0.383-0.172 0.383-0.383s-0.172-0.383-0.383-0.383h-0.672c-0.212 0-0.383 0.172-0.383 0.383s0.172 0.383 0.383 0.383v0z"></path>
<path fill="#f68b1f" d="M5.763 6.618h-0.672c-0.212 0-0.383 0.172-0.383 0.383s0.172 0.383 0.383 0.383h0.672c0.212 0 0.383-0.172 0.383-0.383s-0.172-0.383-0.383-0.383v0z"></path>
<path fill="#f68b1f" d="M3.075 6.618h-0.672c-0.212 0-0.383 0.172-0.383 0.383s0.172 0.383 0.383 0.383h0.672c0.212 0 0.383-0.172 0.383-0.383s-0.172-0.383-0.383-0.383v0z"></path>
<path fill="#f68b1f" d="M5.763 8.84h-0.672c-0.212 0-0.383 0.172-0.383 0.383s0.172 0.383 0.383 0.383h0.672c0.212 0 0.383-0.172 0.383-0.383s-0.172-0.383-0.383-0.383v0z"></path>
<path fill="#f68b1f" d="M3.075 8.84h-0.672c-0.212 0-0.383 0.172-0.383 0.383s0.172 0.383 0.383 0.383h0.672c0.212 0 0.383-0.172 0.383-0.383s-0.172-0.383-0.383-0.383v0z"></path>
<path fill="#f68b1f" d="M12.904 11.106h-1.403v-1.973c-0.012-0.202-0.179-0.361-0.383-0.361s-0.371 0.159-0.383 0.36l-0 0.001v2.356c0 0.212 0.172 0.383 0.383 0.383 0 0 0 0 0.001 0h1.805c0.212 0 0.383-0.172 0.383-0.383s-0.172-0.383-0.383-0.383v0z"></path>
<path fill="#f68b1f" d="M7.874 6.618h-0.672c-0.212 0-0.383 0.172-0.383 0.383s0.172 0.383 0.383 0.383h0.672c0.212 0 0.383-0.172 0.383-0.383s-0.172-0.383-0.383-0.383v0z"></path>
</svg>
