<!-- Generated by IcoMoon.io -->
<svg version="1.1" xmlns="http://www.w3.org/2000/svg" width="16" height="16" viewBox="0 0 16 16">
<title>facebook-gray</title>
<path fill="#8a8b8a" d="M8.533 11.867h-1.2c-0.2 0-0.367-0.167-0.367-0.367v-2.767h-0.7c-0.2 0-0.367-0.167-0.367-0.367v-1.2c0-0.2 0.167-0.367 0.367-0.367h0.7v-0.6c-0.033-0.533 0.167-1.067 0.533-1.433s0.9-0.567 1.433-0.533h0.933c0.2 0 0.367 0.167 0.367 0.367v1.067c0 0.2-0.167 0.367-0.367 0.367h-0.633c-0.2 0-0.233 0.033-0.267 0.067s-0.033 0.067-0.033 0.233v0.467h0.867c0.067 0 0.133 0 0.2 0.033 0.133 0.067 0.2 0.2 0.2 0.333v1.2c0 0.2-0.167 0.367-0.367 0.367h-0.867v2.767c-0.067 0.2-0.233 0.367-0.433 0.367 0 0 0 0 0 0zM7.4 11.4h1.067v-2.9c0-0.133 0.1-0.233 0.233-0.233h1v-1.033h-1c-0.133 0-0.233-0.1-0.233-0.233v-0.667c0-0.2 0.033-0.367 0.133-0.533 0.167-0.133 0.367-0.233 0.6-0.2h0.567v-0.933h-0.867c-0.933 0-1.5 0.6-1.5 1.533v0.8c0 0.133-0.1 0.233-0.233 0.233h-0.833v1.033h0.833c0.133 0 0.233 0.1 0.233 0.233v2.9zM9.833 4.667v0z"></path>
<path fill="#8a8b8a" d="M8 16c-4.4 0-8-3.6-8-8s3.6-8 8-8 8 3.6 8 8-3.6 8-8 8zM8 0.667c-4.033 0-7.333 3.3-7.333 7.333s3.3 7.333 7.333 7.333 7.333-3.3 7.333-7.333-3.3-7.333-7.333-7.333z"></path>
</svg>
