<!-- Generated by IcoMoon.io -->
<svg version="1.1" xmlns="http://www.w3.org/2000/svg" width="16" height="16" viewBox="0 0 16 16">
<title>flickr-gray</title>
<path fill="#8a8b8a" d="M6.004 6.389c-0.933 0-1.7 0.767-1.7 1.7s0.767 1.7 1.7 1.7 1.7-0.767 1.7-1.7-0.767-1.7-1.7-1.7c0 0 0 0 0 0zM6.004 9.189c-0.6 0-1.1-0.5-1.1-1.1s0.5-1.1 1.1-1.1 1.1 0.5 1.1 1.1c0 0.6-0.5 1.1-1.1 1.1z"></path>
<path fill="#8a8b8a" d="M10.104 6.389c-0.933 0-1.7 0.767-1.7 1.7s0.767 1.7 1.7 1.7 1.7-0.767 1.7-1.7-0.767-1.7-1.7-1.7v0zM10.104 9.189c-0.6 0-1.1-0.5-1.1-1.1s0.5-1.1 1.1-1.1c0.6 0 1.1 0.5 1.1 1.1 0 0 0 0 0 0 0.033 0.6-0.467 1.1-1.1 1.1z"></path>
<path fill="#8a8b8a" d="M8 16c-4.4 0-8-3.6-8-8s3.6-8 8-8 8 3.6 8 8-3.6 8-8 8zM8 0.667c-4.033 0-7.333 3.3-7.333 7.333s3.3 7.333 7.333 7.333 7.333-3.3 7.333-7.333-3.3-7.333-7.333-7.333z"></path>
</svg>
