<!-- Generated by IcoMoon.io -->
<svg version="1.1" xmlns="http://www.w3.org/2000/svg" width="16" height="16" viewBox="0 0 16 16">
<title>globe-gray</title>
<path fill="#8a8b8a" d="M7.8 9.219c-0.002 0-0.004 0-0.006 0-0.084 0-0.167-0.005-0.249-0.016l0.010 0.001c-0.483-0.091-0.897-0.334-1.202-0.677l-0.002-0.002c-0.285-0.267-0.449-0.381-0.637-0.375-0.16 0.012-0.309 0.043-0.45 0.090l0.013-0.004c-0.199 0.074-0.429 0.117-0.67 0.117-0.141 0-0.278-0.015-0.41-0.043l0.013 0.002c-1.142-0.295-1.26-1.478-1.338-2.261-0.011-0.119-0.023-0.233-0.037-0.339-0.011-0.074-0.021-0.159-0.593-0.121-0.045 0.005-0.085 0.012-0.123 0.021l0.006-0.001c-0.091 0.029-0.196 0.046-0.305 0.046-0.2 0-0.386-0.056-0.544-0.154l0.004 0.003c-0.234-0.231-0.379-0.552-0.379-0.907 0-0.093 0.010-0.183 0.029-0.271l-0.002 0.008c0.028-0.252 0.24-0.447 0.497-0.447 0.276 0 0.5 0.224 0.5 0.5 0 0.020-0.001 0.039-0.003 0.059l0-0.002c-0.005 0.041-0.008 0.089-0.008 0.137 0 0.018 0 0.035 0.001 0.052l-0-0.002 0.017-0.003c0.068-0.016 0.152-0.029 0.237-0.037l0.008-0.001c0.371-0.024 1.501-0.097 1.648 0.985 0.016 0.116 0.029 0.243 0.041 0.375 0.074 0.744 0.16 1.28 0.593 1.392 0.037 0.004 0.080 0.007 0.123 0.007 0.152 0 0.297-0.029 0.43-0.082l-0.008 0.003c0.207-0.069 0.445-0.113 0.693-0.123l0.005-0h0.009c0.517 0.028 0.974 0.263 1.293 0.623l0.002 0.002c0.164 0.198 0.379 0.348 0.625 0.43l0.010 0.003c-0.024-0.056-0.044-0.122-0.055-0.19l-0.001-0.005c-0.006-0.037-0.009-0.079-0.009-0.123 0-0.266 0.121-0.504 0.311-0.661l0.001-0.001c-0.031-0.010-0.067-0.021-0.096-0.035-0.378-0.139-0.645-0.491-0.655-0.907l-0-0.001c0.033-0.529 0.363-0.974 0.825-1.171l0.009-0.003c0.979-0.441 1.505 0.205 1.853 0.633l0.103 0.125c0.116 0.137 0.244 0.258 0.385 0.363l0.006 0.004q-0.005-0.025-0.011-0.048c-0.034-0.116-0.053-0.25-0.053-0.388 0-0.092 0.009-0.182 0.025-0.269l-0.001 0.009c0.119-0.396 0.36-0.725 0.679-0.952l0.005-0.004c0.13-0.107 0.267-0.209 0.4-0.31 0.341-0.221 0.627-0.495 0.854-0.815l0.006-0.010c0.102-0.161 0.164-0.357 0.167-0.566l0-0.001c-0.011-0.095-0.037-0.181-0.075-0.26l0.002 0.005c-0.046-0.106-0.086-0.231-0.115-0.361l-0.003-0.014c-0.008-0.033-0.012-0.071-0.012-0.11 0-0.276 0.224-0.5 0.5-0.5 0.246 0 0.451 0.178 0.492 0.413l0 0.003c0.018 0.079 0.041 0.148 0.070 0.213l-0.003-0.008c0.080 0.176 0.131 0.381 0.141 0.596l0 0.004c0 0 0 0 0 0 0 0.404-0.114 0.781-0.311 1.102l0.005-0.009c-0.299 0.448-0.674 0.821-1.109 1.11l-0.015 0.009c-0.123 0.092-0.246 0.183-0.364 0.281-0.149 0.101-0.267 0.238-0.342 0.399l-0.002 0.006c0.001 0.078 0.013 0.152 0.033 0.223l-0.001-0.006c0.033 0.11 0.052 0.236 0.052 0.367s-0.019 0.257-0.054 0.376l0.002-0.009c-0.085 0.308-0.333 0.543-0.643 0.606l-0.005 0.001c-0.649 0.119-1.297-0.592-1.479-0.813l-0.111-0.133c-0.376-0.461-0.416-0.467-0.667-0.352-0.105 0.047-0.188 0.127-0.238 0.227l-0.001 0.003c0.009 0.003 0.025 0.012 0.047 0.021 0.035 0.011 0.077 0.021 0.12 0.026l0.004 0c0.366 0.026 0.674 0.251 0.819 0.566l0.002 0.006c0.036 0.086 0.057 0.186 0.057 0.291 0 0.325-0.202 0.603-0.488 0.715l-0.005 0.002-0.040 0.023c0.051 0.035 0.109 0.067 0.17 0.093l0.007 0.003c0.359 0.041 0.634 0.343 0.635 0.709v0c-0.003 0.16-0.080 0.301-0.199 0.391l-0.001 0.001c-0.082 0.062-0.185 0.099-0.296 0.099-0.049 0-0.096-0.007-0.14-0.020l0.004 0.001c-0.081-0.015-0.173-0.024-0.268-0.024-0.104 0-0.205 0.010-0.303 0.030l0.010-0.002c-0.139 0.021-0.303 0.034-0.469 0.039l-0.005 0z"></path>
<path fill="#8a8b8a" d="M8.838 15.848c-0 0-0 0-0.001 0-0.276 0-0.499-0.224-0.499-0.499 0-0.040 0.005-0.080 0.014-0.117l-0.001 0.003 0.115-0.483c0.129-0.533 0.267-1.090 0.339-1.631 0.099-0.706 0.087-0.921-0.245-1.251-0.347-0.283-0.568-0.708-0.573-1.184l-0-0.001c0.033-0.352 0.221-0.653 0.495-0.839l0.004-0.003c0.052-0.039 0.112-0.079 0.174-0.115l0.010-0.005c0.023-0.014 0.053-0.033 0.078-0.049-0.055-0.131-0.115-0.243-0.183-0.348l0.005 0.009c-0.041-0.067-0.079-0.133-0.109-0.189s-0.051-0.123-0.057-0.194l-0-0.002c-0.008-0.037-0.013-0.080-0.013-0.124 0-0.121 0.035-0.233 0.095-0.328l-0.001 0.003c0.209-0.242 0.516-0.394 0.859-0.394 0.050 0 0.099 0.003 0.147 0.009l-0.006-0.001c0.384 0.010 0.74 0.117 1.049 0.297l-0.011-0.006c0.127 0.072 0.239 0.149 0.345 0.223 0.281 0.195 0.363 0.243 0.569 0.189 0.161-0.053 0.292-0.106 0.419-0.166l-0.023 0.010c0.311-0.193 0.687-0.307 1.091-0.307 0.17 0 0.335 0.020 0.493 0.058l-0.014-0.003c0.884 0.366 0.79 1.667 0.611 2.209-0.193 0.69-0.588 1.271-1.118 1.689l-0.007 0.005c-0.139 0.099-0.273 0.183-0.4 0.267-0.293 0.141-0.528 0.362-0.683 0.634l-0.004 0.008c-0.578 1.165-1.373 2.389-2.887 2.625-0.015 0.002-0.033 0.003-0.052 0.003-0.009 0-0.017-0-0.026-0.001l0.001 0zM9.595 9.121c0.098 0.166 0.156 0.366 0.156 0.58 0 0.088-0.010 0.174-0.028 0.256l0.001-0.008c-0.090 0.276-0.283 0.496-0.532 0.622l-0.006 0.003c-0.034 0.021-0.067 0.041-0.1 0.067-0.083 0.063-0.103 0.105-0.103 0.111s-0.005 0.125 0.28 0.407c0.383 0.385 0.62 0.915 0.62 1.5 0 0.214-0.032 0.42-0.090 0.615l0.004-0.015c-0.062 0.442-0.156 0.877-0.256 1.303 0.6-0.461 1.068-1.065 1.356-1.762l0.010-0.028c0.24-0.451 0.601-0.81 1.041-1.041l0.014-0.006c0.111-0.067 0.227-0.141 0.346-0.227 0.365-0.305 0.633-0.715 0.756-1.184l0.004-0.016c0.127-0.385 0.067-0.925-0.045-0.97-0.293 0.033-0.559 0.12-0.799 0.25l0.012-0.006c-0.148 0.072-0.327 0.142-0.511 0.199l-0.028 0.008c-0.115 0.031-0.247 0.049-0.382 0.049-0.388 0-0.742-0.145-1.012-0.383l0.002 0.001c-0.084-0.057-0.172-0.119-0.271-0.176-0.126-0.072-0.273-0.124-0.43-0.146l-0.007-0.001z"></path>
<path fill="#8a8b8a" d="M8 16c-4.418 0-8-3.582-8-8s3.582-8 8-8c4.418 0 8 3.582 8 8v0c-0.005 4.416-3.584 7.995-7.999 8h-0.001zM8 1c-3.866 0-7 3.134-7 7s3.134 7 7 7c3.866 0 7-3.134 7-7v0c-0.004-3.864-3.136-6.996-7-7h-0z"></path>
<path fill="#8a8b8a" d="M8.643 3.005c-0.059 0-0.119 0-0.179-0.006-0.356-0.043-0.68-0.144-0.975-0.294l0.017 0.008c-0.152-0.075-0.329-0.141-0.514-0.189l-0.019-0.004c-0.257-0.031-0.472-0.183-0.591-0.396l-0.002-0.004c-0.043-0.093-0.068-0.203-0.068-0.318 0-0.058 0.006-0.115 0.018-0.169l-0.001 0.005 0.025-0.133c0.021-0.082 0.035-0.178 0.041-0.276l0-0.004v-0.019c-0.033 0.008-0.071 0.012-0.11 0.012-0.276 0-0.5-0.224-0.5-0.5 0-0.164 0.079-0.309 0.2-0.4l0.001-0.001c0.137-0.098 0.307-0.157 0.492-0.157 0.242 0 0.46 0.101 0.615 0.263l0 0c0.188 0.2 0.303 0.47 0.303 0.766 0 0.018-0 0.036-0.001 0.054l0-0.003c-0.003 0.124-0.017 0.243-0.041 0.358l0.002-0.013c0.219 0.068 0.401 0.139 0.576 0.22l-0.028-0.012c0.182 0.095 0.394 0.167 0.618 0.204l0.012 0.002c0.007 0 0.015 0 0.023 0 0.327 0 0.645-0.042 0.948-0.121l-0.026 0.006 0.147-0.030c-0.072-0.135-0.114-0.296-0.114-0.466 0-0.039 0.002-0.077 0.006-0.115l-0 0.005c0.054-0.368 0.313-0.663 0.655-0.77l0.007-0.002c0.098-0.030 0.21-0.047 0.326-0.047 0.198 0 0.384 0.049 0.547 0.136l-0.006-0.003c0.163 0.085 0.272 0.252 0.272 0.445 0 0.276-0.224 0.5-0.5 0.5-0.082 0-0.159-0.020-0.228-0.055l0.003 0.001c-0.010-0.005-0.022-0.011-0.035-0.015l-0.002-0.001c0.009 0.011 0.018 0.025 0.029 0.039l0.055 0.067c0.13 0.145 0.234 0.316 0.304 0.504l0.004 0.011c0.015 0.046 0.024 0.099 0.024 0.153 0 0.273-0.219 0.495-0.49 0.5h-0c-0.294 0.017-0.569 0.059-0.834 0.124l0.031-0.006c-0.307 0.079-0.662 0.13-1.027 0.142l-0.009 0z"></path>
</svg>
