<!-- Generated by IcoMoon.io -->
<svg version="1.1" xmlns="http://www.w3.org/2000/svg" width="16" height="16" viewBox="0 0 16 16">
<title>instagram-gray</title>
<path fill="#8a8b8a" d="M9.829 4.216h-3.467c-1.133 0-2.033 0.9-2.033 2.033v3.467c0 1.133 0.9 2.033 2.033 2.033h3.467c1.133 0 2.033-0.9 2.033-2.033v-3.467c0-1.133-0.9-2.033-2.033-2.033zM11.429 9.716c0 0.9-0.7 1.6-1.6 1.6h-3.467c-0.9 0-1.6-0.7-1.6-1.6v-3.467c0-0.9 0.7-1.6 1.6-1.6 0 0 0 0 0 0h3.467c0.9 0 1.6 0.7 1.6 1.6v3.467z"></path>
<path fill="#8a8b8a" d="M8.096 5.916c-1.133 0-2.067 0.933-2.067 2.067s0.933 2.067 2.067 2.067c1.133 0 2.067-0.933 2.067-2.067s-0.933-2.067-2.067-2.067zM8.096 9.616c-0.9 0-1.633-0.733-1.633-1.633s0.733-1.633 1.633-1.633 1.633 0.733 1.633 1.633c0 0.9-0.733 1.633-1.633 1.633v0z"></path>
<path fill="#8a8b8a" d="M10.196 5.183c-0.333 0-0.6 0.267-0.6 0.6s0.267 0.6 0.6 0.6 0.6-0.267 0.6-0.6c0.033-0.333-0.233-0.6-0.6-0.6zM10.196 5.983c-0.1 0-0.167-0.067-0.167-0.167s0.067-0.167 0.167-0.167 0.167 0.067 0.167 0.167c0 0.067-0.067 0.167-0.167 0.167z"></path>
<path fill="#8a8b8a" d="M8 16c-4.4 0-8-3.6-8-8s3.6-8 8-8 8 3.6 8 8-3.6 8-8 8zM8 0.667c-4.033 0-7.333 3.3-7.333 7.333s3.3 7.333 7.333 7.333 7.333-3.3 7.333-7.333-3.3-7.333-7.333-7.333z"></path>
</svg>
