<!-- Generated by IcoMoon.io -->
<svg version="1.1" xmlns="http://www.w3.org/2000/svg" width="16" height="16" viewBox="0 0 16 16">
<title>linkedin-gray</title>
<path fill="#8a8b8a" d="M6.894 5.832h-1.267c-0.133 0-0.267 0.1-0.267 0.267 0 0 0 0 0 0v4.767c0 0.133 0.1 0.267 0.267 0.267h1.267c0.133 0 0.267-0.1 0.267-0.267v-4.767c0-0.167-0.133-0.267-0.267-0.267zM6.694 10.665h-0.9v-4.4h0.9v4.4z"></path>
<path fill="#8a8b8a" d="M6.261 3.599c-0.5 0-0.9 0.4-0.9 0.9s0.4 0.9 0.9 0.9 0.9-0.4 0.9-0.9v0c0-0.5-0.4-0.9-0.9-0.9zM6.261 4.965c-0.267 0-0.467-0.2-0.467-0.467s0.2-0.467 0.467-0.467c0.267 0 0.467 0.2 0.467 0.467 0 0 0 0 0 0 0 0.267-0.2 0.467-0.467 0.467z"></path>
<path fill="#8a8b8a" d="M11.261 6.399c-0.3-0.267-0.7-0.4-1.1-0.367-0.233 0-0.5 0.067-0.7 0.167v-0.133c0-0.133-0.1-0.233-0.233-0.233v0h-1.3c-0.133 0-0.233 0.1-0.233 0.233v0 4.8c0 0.133 0.1 0.233 0.233 0.233v0h1.3c0.133 0 0.233-0.1 0.233-0.233v-2.867c0-0.233 0.2-0.433 0.433-0.467 0.233 0 0.467 0.2 0.467 0.433 0 0 0 0 0 0v2.867c0 0.133 0.1 0.2 0.2 0.2h1.267c0.133 0 0.2-0.1 0.2-0.2v-2.8c0.033-0.6-0.267-1.233-0.767-1.633zM11.628 10.665h-0.8v-2.633c0-0.5-0.4-0.9-0.9-0.9s-0.9 0.4-0.9 0.9v2.633h-0.9v-4.4h0.9v0.333c0 0.133 0.1 0.233 0.233 0.233 0.067 0 0.1-0.033 0.133-0.067 0.233-0.2 0.5-0.3 0.8-0.3s0.567 0.1 0.8 0.267c0.4 0.333 0.667 0.867 0.633 1.4v2.533z"></path>
<path fill="#8a8b8a" d="M8 16c-4.4 0-8-3.6-8-8s3.6-8 8-8 8 3.6 8 8-3.6 8-8 8zM8 0.667c-4.033 0-7.333 3.3-7.333 7.333s3.3 7.333 7.333 7.333 7.333-3.3 7.333-7.333-3.3-7.333-7.333-7.333z"></path>
</svg>
