<!-- Generated by IcoMoon.io -->
<svg version="1.1" xmlns="http://www.w3.org/2000/svg" width="16" height="16" viewBox="0 0 16 16">
<title>link-gray</title>
<path fill="#8a8b8a" d="M1.093 9.616c-0.687 0.679-1.112 1.62-1.112 2.661 0 2.066 1.675 3.741 3.741 3.741 1.041 0 1.983-0.425 2.661-1.112l0-0 2.939-2.939c0.676-0.678 1.093-1.612 1.093-2.645s-0.418-1.967-1.093-2.645l0 0c-0.113-0.113-0.269-0.183-0.441-0.183-0.344 0-0.624 0.279-0.624 0.624 0 0.172 0.070 0.328 0.183 0.441v0c0.456 0.449 0.738 1.073 0.738 1.763s-0.282 1.314-0.738 1.763l-0 0-2.939 2.939c-0.454 0.467-1.088 0.757-1.789 0.757-1.377 0-2.494-1.117-2.494-2.494 0-0.702 0.29-1.336 0.756-1.789l0.001-0.001 2.792-2.792c0.113-0.113 0.183-0.269 0.183-0.441 0-0.344-0.279-0.624-0.624-0.624-0.172 0-0.328 0.070-0.441 0.183l-2.792 2.792zM6.677 4.032c-0.675 0.678-1.093 1.613-1.093 2.645s0.418 1.967 1.093 2.645l-0-0c0.113 0.113 0.269 0.183 0.441 0.183 0.344 0 0.624-0.279 0.624-0.624 0-0.172-0.070-0.328-0.183-0.441v0c-0.456-0.449-0.738-1.073-0.738-1.763s0.282-1.314 0.738-1.763l0-0 2.939-2.939c0.454-0.467 1.088-0.757 1.789-0.757 1.377 0 2.494 1.117 2.494 2.494 0 0.702-0.29 1.336-0.756 1.789l-0.001 0.001-2.792 2.792c-0.113 0.113-0.183 0.269-0.183 0.441 0 0.344 0.279 0.624 0.624 0.624 0.172 0 0.328-0.070 0.441-0.183l2.792-2.792c0.687-0.679 1.112-1.62 1.112-2.661 0-2.066-1.675-3.741-3.741-3.741-1.041 0-1.983 0.425-2.661 1.112l-0 0z"></path>
</svg>
