<!-- Generated by IcoMoon.io -->
<svg version="1.1" xmlns="http://www.w3.org/2000/svg" width="16" height="16" viewBox="0 0 16 16">
<title>location-switcher-blue</title>
<path fill="#0097d0" d="M10.96 0c-0.22 0.003-0.415 0.102-0.549 0.255l-0.001 0.001-2.884 2.536c-0.151 0.133-0.247 0.326-0.247 0.542 0 0.187 0.071 0.357 0.188 0.485l-0-0.001c0.137 0.149 0.333 0.243 0.551 0.243 0.189 0 0.361-0.070 0.493-0.186l-0.001 0.001 1.722-1.515v8.279c0.015 0.396 0.34 0.712 0.739 0.712s0.723-0.316 0.738-0.71l0-0.001v-8.278l1.722 1.514c0.131 0.115 0.303 0.185 0.492 0.185 0.218 0 0.415-0.094 0.551-0.243l0.001-0.001c0.116-0.127 0.188-0.298 0.188-0.485 0-0.216-0.095-0.41-0.246-0.542l-0.001-0.001-2.883-2.536c-0.137-0.157-0.338-0.256-0.562-0.256-0.004 0-0.008 0-0.012 0h0.001zM4.68 4.619c-0.403 0.003-0.728 0.33-0.728 0.733 0 0.002 0 0.004 0 0.005v-0 8.278l-1.721-1.516c-0.131-0.115-0.303-0.185-0.492-0.185-0.218 0-0.414 0.093-0.551 0.242l-0 0.001c-0.116 0.127-0.188 0.298-0.188 0.485 0 0.216 0.095 0.41 0.246 0.542l0.001 0.001 2.876 2.529c0.138 0.161 0.341 0.262 0.568 0.262 0.223 0 0.423-0.098 0.559-0.252l0.001-0.001 2.885-2.538c0.156-0.133 0.254-0.33 0.254-0.549 0-0.088-0.016-0.173-0.045-0.251l0.002 0.005c-0.105-0.279-0.367-0.475-0.675-0.482l-0.001-0c-0.006-0-0.014-0-0.022-0-0.192 0-0.367 0.073-0.499 0.192l0.001-0.001-1.721 1.519v-8.278c0-0.003 0-0.006 0-0.010 0-0.202-0.083-0.384-0.216-0.515l-0-0c-0.135-0.133-0.319-0.215-0.524-0.215-0.004 0-0.007 0-0.011 0h0.001z"></path>
</svg>
