<!-- Generated by IcoMoon.io -->
<svg version="1.1" xmlns="http://www.w3.org/2000/svg" width="9" height="16" viewBox="0 0 9 16">
<title>lrt-white</title>
<path fill="#fff" d="M2.286 13.714h4.571c0.009 0 0.019 0 0.029 0 1.246 0 2.257-1.010 2.257-2.257 0-0.010-0-0.020-0-0.031l0 0.002v-6.857c0-0.011 0-0.024 0-0.036 0-1.242-1.007-2.249-2.249-2.249-0.013 0-0.026 0-0.038 0l0.002-0h-4.571c-0.009-0-0.019-0-0.029-0-1.246 0-2.257 1.010-2.257 2.257 0 0.010 0 0.020 0 0.031l-0-0.002v6.857c-0 0.007-0 0.015-0 0.023 0 1.25 1.013 2.263 2.263 2.263 0.008 0 0.016-0 0.024-0l-0.001 0zM0.857 16h1.292l1.429-2.286h-1.292zM7.005 16h1.28l-1.429-2.286h-1.28zM4.571 11.429c0.615-0.042 1.103-0.53 1.145-1.141l0-0.004c-0.042-0.615-0.53-1.103-1.141-1.145l-0.004-0c-0.615 0.042-1.103 0.53-1.145 1.141l-0 0.004c0.042 0.615 0.531 1.104 1.142 1.145l0.004 0zM2.285 12.574c-0.028 0.003-0.060 0.004-0.093 0.004-0.584 0-1.057-0.473-1.057-1.057 0-0.033 0.001-0.065 0.004-0.097l-0 0.004v-6.857c-0.003-0.030-0.005-0.064-0.005-0.099 0-0.581 0.471-1.051 1.051-1.051 0.035 0 0.069 0.002 0.103 0.005l-0.004-0h4.571c0.031-0.003 0.068-0.005 0.105-0.005 0.578 0 1.046 0.468 1.046 1.046 0 0.037-0.002 0.073-0.006 0.109l0-0.005v6.857c0.003 0.030 0.005 0.064 0.005 0.099 0 0.581-0.471 1.051-1.051 1.051-0.035 0-0.069-0.002-0.103-0.005l0.004 0zM1.145 8h6.855v-1.145h-6.855zM4.002 2.286h1.145v-1.145h1.714v-1.145h-4.576v1.145h1.714z"></path>
</svg>
