<!-- Generated by IcoMoon.io -->
<svg version="1.1" xmlns="http://www.w3.org/2000/svg" width="16" height="16" viewBox="0 0 16 16">
<title>mail-white</title>
<path fill="#fff" d="M15.832 6.44l-2.257-1.364v-3.705c-0.002-0.204-0.167-0.369-0.37-0.371h-10.408c-0.204 0.002-0.369 0.167-0.371 0.371v3.705l-2.24 1.364c-0.111 0.063-0.185 0.181-0.185 0.315 0 0.002 0 0.003 0 0.005v-0 7.983c0.002 0.204 0.167 0.369 0.371 0.371h15.276c0.196-0.003 0.354-0.163 0.354-0.36 0-0.004-0-0.008-0-0.012l0 0.001v-7.983c0-0.001 0-0.002 0-0.003 0-0.131-0.066-0.247-0.167-0.317l-0.001-0.001zM5.692 10.819l-4.951 3.251v-6.62zM7.999 10.196l6.4 4.177h-12.799zM10.306 10.819l4.969-3.368v6.62zM14.956 6.777l-1.381 0.943v-1.785zM12.834 1.741v6.484l-3.2 2.173-1.432-0.943c-0.056-0.040-0.127-0.063-0.202-0.063s-0.146 0.024-0.203 0.064l0.001-0.001-1.432 0.943-3.2-2.173v-6.484zM2.442 7.72l-1.381-0.943 1.381-0.842z"></path>
<path fill="#fff" d="M5.491 3.873h2.533c0.191 0 0.346-0.155 0.346-0.346s-0.155-0.346-0.346-0.346v0h-2.533c-0.191 0-0.346 0.155-0.346 0.346s0.155 0.346 0.346 0.346v0z"></path>
<path fill="#fff" d="M5.595 5.766h4.828c0.191 0 0.346-0.155 0.346-0.346s-0.155-0.346-0.346-0.346v0h-4.828c-0.191 0-0.346 0.155-0.346 0.346s0.155 0.346 0.346 0.346v0z"></path>
<path fill="#fff" d="M5.595 7.659h4.828c0.191 0 0.346-0.155 0.346-0.346s-0.155-0.346-0.346-0.346v0h-4.828c-0.191 0-0.346 0.155-0.346 0.346s0.155 0.346 0.346 0.346v0z"></path>
</svg>
