<!-- Generated by IcoMoon.io -->
<svg version="1.1" xmlns="http://www.w3.org/2000/svg" width="16" height="16" viewBox="0 0 16 16">
<title>nextrip-white</title>
<path fill="#fff" d="M8 0.667c-1 0-1.967 0.2-2.867 0.567-0.867 0.367-1.667 0.9-2.333 1.567s-1.2 1.467-1.567 2.333c-0.367 0.9-0.567 1.867-0.567 2.867s0.2 1.967 0.567 2.867c0.367 0.867 0.9 1.667 1.567 2.333s1.467 1.2 2.333 1.567c0.9 0.367 1.867 0.567 2.867 0.567s1.967-0.2 2.867-0.567c0.867-0.367 1.667-0.9 2.333-1.567s1.2-1.467 1.567-2.333c0.367-0.9 0.567-1.867 0.567-2.867s-0.2-1.967-0.567-2.867c-0.367-0.867-0.9-1.667-1.567-2.333s-1.467-1.2-2.333-1.567c-0.9-0.367-1.867-0.567-2.867-0.567zM8 0c4.433 0 8 3.567 8 8s-3.567 8-8 8-8-3.567-8-8 3.567-8 8-8z"></path>
<path fill="#fff" d="M7.82 4.169v4.3z"></path>
<path fill="#fff" d="M7.82 8.869c-0.2 0-0.4-0.167-0.4-0.4v-4.3c0-0.2 0.167-0.4 0.4-0.4s0.4 0.2 0.4 0.4v4.3c0 0.2-0.2 0.4-0.4 0.4z"></path>
<path fill="#fff" d="M8.387 9.635l3.133 2.2z"></path>
<path fill="#fff" d="M11.52 12.202c-0.067 0-0.167-0.033-0.233-0.067l-3.133-2.2c-0.167-0.133-0.233-0.367-0.1-0.533s0.367-0.233 0.533-0.1l3.133 2.2c0.167 0.133 0.233 0.367 0.1 0.533-0.067 0.133-0.167 0.167-0.3 0.167z"></path>
</svg>
