<!-- Generated by IcoMoon.io -->
<svg version="1.1" xmlns="http://www.w3.org/2000/svg" width="16" height="16" viewBox="0 0 16 16">
<title>parking-gray</title>
<path fill="#8a8b8a" d="M8 16c-4.4 0-8-3.6-8-8s3.6-8 8-8v0c2.12 0 4.16 0.84 5.64 2.36 1.52 1.48 2.36 3.52 2.36 5.64 0 4.4-3.6 8-8 8zM8 0.8c-3.96 0-7.2 3.24-7.2 7.2s3.24 7.2 7.2 7.2c3.96 0 7.2-3.24 7.2-7.2 0-1.92-0.76-3.76-2.12-5.080-1.36-1.36-3.16-2.12-5.080-2.12v0z"></path>
<path fill="#8a8b8a" d="M8.793 3.39h-3.44v9.44h1.28v-3.44h2.16c1.52 0 2.76-1.24 2.76-2.76v-0.48c0-1.52-1.24-2.76-2.76-2.76zM10.353 6.51c0 0.88-0.72 1.6-1.6 1.6h-2.12v-3.44h2.12c0.88 0 1.6 0.72 1.6 1.6v0.24z"></path>
</svg>
