<!-- Generated by IcoMoon.io -->
<svg version="1.1" xmlns="http://www.w3.org/2000/svg" width="16" height="16" viewBox="0 0 16 16">
<title>pedestrian-gray</title>
<path fill="#8a8b8a" d="M7.983 4.325c1.194-0 2.162-0.968 2.162-2.163s-0.968-2.163-2.162-2.163c-1.194 0-2.162 0.968-2.162 2.162v0c0.001 1.194 0.969 2.162 2.163 2.163h0zM7.983 1.081c0.597 0 1.081 0.484 1.081 1.081s-0.484 1.081-1.082 1.081c-0.597 0-1.082-0.484-1.082-1.082v0c0.001-0.597 0.484-1.081 1.081-1.081h0z"></path>
<path fill="#8a8b8a" d="M4 9.554c0-2.585 1.914-4.688 4.267-4.688h0.534c0.298 0.015 0.534 0.26 0.534 0.561 0 0.009-0 0.018-0.001 0.026l0-0.001v0.586c-0.001 0.029-0.002 0.063-0.002 0.097 0 1.202 0.943 2.184 2.13 2.247l0.006 0c0.301 0.029 0.534 0.28 0.534 0.586s-0.233 0.557-0.532 0.586l-0.002 0c-0.835-0.006-1.589-0.349-2.133-0.9l-0-0v1.487c0.001 0.015 0.002 0.032 0.002 0.049 0 0.296-0.24 0.536-0.536 0.536s-0.536-0.24-0.536-0.536c0-0.017 0.001-0.034 0.002-0.051l-0 0.002v-4.1c-0.384 0.001-0.751 0.076-1.086 0.212l0.020-0.007v3.357c-0 0.007-0 0.015-0 0.023 0 0.535 0.231 1.016 0.599 1.348l0.002 0.001 1.866 1.64c0.060 0.053 0.109 0.119 0.143 0.192l0.001 0.004 1.066 2.344c0.037 0.076 0.058 0.166 0.058 0.26 0 0.222-0.118 0.416-0.294 0.524l-0.003 0.002c-0.070 0.038-0.152 0.060-0.24 0.060-0.214 0-0.398-0.132-0.474-0.318l-0.001-0.003-1.014-2.229-0.855-0.75-0.35 1.146c-0.027 0.089-0.072 0.165-0.129 0.23l0-0.001-1.6 1.758c-0.092 0.105-0.227 0.172-0.377 0.172s-0.285-0.066-0.377-0.171l-0-0.001c-0.097-0.11-0.156-0.255-0.156-0.414s0.059-0.304 0.157-0.415l-0.001 0.001 1.511-1.66 0.432-1.424-0.032-0.028c-0.615-0.557-1-1.359-1-2.25 0-0.013 0-0.027 0-0.040l-0 0.002v-2.663c-0.659 0.662-1.067 1.576-1.067 2.584 0 0.010 0 0.021 0 0.031l-0-0.002c0.001 0.015 0.002 0.032 0.002 0.049 0 0.296-0.24 0.536-0.535 0.536s-0.535-0.24-0.535-0.536c0-0.017 0.001-0.034 0.002-0.051l-0 0.002z"></path>
</svg>
