<!-- Generated by IcoMoon.io -->
<svg version="1.1" xmlns="http://www.w3.org/2000/svg" width="10" height="16" viewBox="0 0 10 16">
<title>phone-white</title>
<path fill="#fff" d="M8.498 0h-7.060c-0.794 0.001-1.437 0.644-1.438 1.438v13.125c0.001 0.794 0.644 1.437 1.438 1.438h7.060c0.794-0.001 1.437-0.644 1.438-1.438v-13.125c-0.001-0.794-0.644-1.437-1.438-1.438h-0zM0.549 3.091h8.836v9.754h-8.836zM1.438 0.549h7.060c0.49 0.001 0.887 0.398 0.887 0.888v1.104h-8.836v-1.104c0.001-0.49 0.398-0.888 0.889-0.888h0zM8.498 15.451h-7.060c-0.49-0.001-0.888-0.398-0.888-0.888v-1.167h8.836v1.167c-0.001 0.49-0.397 0.887-0.887 0.888h-0z"></path>
<path fill="#fff" d="M4.966 13.776c-0.383 0-0.694 0.311-0.694 0.694s0.311 0.694 0.694 0.694c0.383 0 0.694-0.311 0.694-0.694v0c-0.001-0.383-0.311-0.693-0.694-0.694h-0zM4.966 14.643c-0.095 0-0.171-0.077-0.171-0.171s0.077-0.171 0.171-0.171c0.095 0 0.171 0.077 0.171 0.171v0c-0.001 0.094-0.077 0.17-0.171 0.17 0 0 0 0-0 0v0z"></path>
<path fill="#fff" d="M3.809 2.011c0.231 0 0.418-0.187 0.418-0.418s-0.187-0.418-0.418-0.418c-0.231 0-0.418 0.187-0.418 0.418v0c0 0.231 0.187 0.418 0.418 0.418h0zM3.809 1.488c0.058 0 0.104 0.047 0.104 0.104s-0.047 0.104-0.104 0.104c-0.058 0-0.104-0.047-0.104-0.104v-0c0 0 0 0 0 0 0-0.058 0.047-0.104 0.104-0.105h0z"></path>
<path fill="#fff" d="M4.696 1.854h1.557c0.144 0 0.261-0.117 0.261-0.261s-0.117-0.261-0.261-0.261h-1.557c-0.144 0-0.261 0.117-0.261 0.261s0.117 0.261 0.261 0.261v0z"></path>
</svg>
