<!-- Generated by IcoMoon.io -->
<svg version="1.1" xmlns="http://www.w3.org/2000/svg" width="16" height="16" viewBox="0 0 16 16">
<title>pin-gray</title>
<path fill="#8a8b8a" d="M7.952 0c-3.469 0.005-6.28 2.816-6.285 6.285v0c0.001 0.848 0.187 1.653 0.518 2.376l-0.015-0.036c0.591 1.326 1.291 2.47 2.118 3.508l-0.025-0.032c0.903 1.245 1.899 2.528 2.643 3.643 0.104 0.154 0.278 0.254 0.476 0.254 0.176 0 0.333-0.079 0.438-0.204l0.001-0.001c0.925-1.111 2.207-2.395 3.349-3.634 1.025-0.978 1.877-2.128 2.511-3.404l0.032-0.071c0.333-0.702 0.527-1.525 0.527-2.393 0-0.002 0-0.005 0-0.007v0c-0.005-3.469-2.814-6.28-6.282-6.286h-0.001zM7.952 1.143c0.003 0 0.006-0 0.009-0 2.835 0 5.133 2.298 5.133 5.133 0 0.004 0 0.007-0 0.011v-0.001c0 0.011 0 0.024 0 0.038 0 0.694-0.158 1.351-0.441 1.936l0.012-0.027c-0.005 0.011-0.011 0.025-0.017 0.039v0.004c-0.638 1.195-1.411 2.22-2.317 3.108l-0.002 0.002c-0.957 1.038-1.989 2.114-2.895 3.143-0.709-1.013-1.501-2.067-2.247-3.097-0.734-0.93-1.385-1.984-1.908-3.11l-0.041-0.098c-0.005-0.015-0.010-0.027-0.015-0.037v0.003c-0.261-0.55-0.413-1.195-0.413-1.875 0-0.010 0-0.020 0-0.029v0.002c0-0.003-0-0.006-0-0.010 0-2.835 2.298-5.133 5.133-5.133 0.004 0 0.009 0 0.013 0h-0.001zM7.952 3.428c-1.577 0-2.856 1.279-2.856 2.857s1.279 2.857 2.857 2.857c1.577 0 2.856-1.279 2.857-2.856v-0c-0.006-1.576-1.282-2.851-2.857-2.857h-0zM7.952 4.571c0 0 0 0 0.001 0 0.947 0 1.715 0.768 1.715 1.715s-0.768 1.715-1.715 1.715c-0.947 0-1.714-0.767-1.715-1.714v-0c-0-0.003-0-0.006-0-0.009 0-0.942 0.764-1.706 1.706-1.706 0.003 0 0.006 0 0.008 0h-0z"></path>
</svg>
