<!-- Generated by IcoMoon.io -->
<svg version="1.1" xmlns="http://www.w3.org/2000/svg" width="15" height="16" viewBox="0 0 15 16">
<title>purchase-gray</title>
<path fill="#8a8b8a" d="M0.339 14.789c0.011 0.001 0.023 0.002 0.035 0.002s0.025-0.001 0.037-0.002l-0.002 0c0.2-0.001 0.366-0.145 0.4-0.336l0-0.002 1.126-6.487c0.137-0.772 0.606-1.413 1.249-1.781l0.013-0.007c0.338-0.196 0.755-0.405 1.183-0.592l0.085-0.033c0.376-0.172 0.823-0.329 1.286-0.445l0.056-0.012v2.721c-0.077-0.032-0.176-0.066-0.276-0.093l-0.019-0.005c-0.033-0.009-0.070-0.015-0.109-0.015-0.226 0-0.409 0.183-0.409 0.409 0 0.187 0.125 0.345 0.297 0.393l0.003 0.001c0.226 0.058 0.423 0.157 0.593 0.29l-0.004-0.003c-0.255 0.39-0.573 0.716-0.943 0.972l-0.012 0.008c-0.108 0.075-0.177 0.198-0.177 0.338 0 0.227 0.184 0.411 0.411 0.411 0.087 0 0.168-0.027 0.235-0.074l-0.001 0.001c0.485-0.336 0.887-0.756 1.194-1.241l0.010-0.018 1.329-2.096c0.131-0.196 0.351-0.324 0.601-0.324 0.398 0 0.72 0.322 0.72 0.72 0 0.137-0.038 0.264-0.104 0.373l0.002-0.003-0.992 1.61c-0.363 0.573-0.578 1.272-0.578 2.020 0 0.040 0.001 0.080 0.002 0.119l-0-0.006c0.001 0.029 0.002 0.062 0.002 0.096 0 1.025-0.514 1.929-1.297 2.47l-0.010 0.007-0.108 0.073c-0.434 0.299-0.793 0.672-1.068 1.105l-0.009 0.015c-0.040 0.062-0.063 0.138-0.063 0.219 0 0.227 0.184 0.411 0.411 0.411 0.146 0 0.274-0.076 0.347-0.191l0.001-0.002c0.223-0.353 0.506-0.648 0.837-0.877l0.010-0.007 0.108-0.073c0.605-0.42 1.075-0.995 1.357-1.668l0.009-0.025 0.1 0.1c0.234 0.237 0.559 0.384 0.918 0.384 0.576 0 1.065-0.378 1.23-0.9l0.002-0.009c0.083 0.019 0.177 0.031 0.275 0.031 0.691 0 1.25-0.56 1.25-1.25 0-0.148-0.026-0.29-0.073-0.422l0.003 0.009-0.020-0.057h1.654c0.587 0 1.063-0.476 1.063-1.063v0-8.917c0 0 0 0 0 0 0-0.587-0.476-1.063-1.063-1.063-0.001 0-0.001 0-0.002 0h-6.574c-0.587 0-1.063 0.476-1.063 1.063v0 3.182c-0.636 0.141-1.193 0.329-1.721 0.569l0.054-0.022c-0.545 0.239-0.988 0.466-1.416 0.715l0.067-0.036c-0.866 0.497-1.483 1.346-1.657 2.347l-0.003 0.020-1.125 6.48c-0.004 0.021-0.006 0.045-0.006 0.069 0 0.201 0.145 0.368 0.337 0.402l0.002 0zM9.426 12.72c-0.081 0.066-0.185 0.107-0.3 0.107-0.133 0-0.253-0.055-0.339-0.143l-0-0-0.433-0.441c0.027-0.17 0.042-0.367 0.042-0.567 0-0.034-0-0.068-0.001-0.102l0 0.005c-0.001-0.025-0.001-0.054-0.001-0.084 0-0.161 0.013-0.318 0.037-0.472l-0.002 0.017h0.457c0 0.010 0.005 0.018 0.011 0.024l0 0 0.637 1.035c0.044 0.071 0.070 0.157 0.070 0.249 0 0.15-0.069 0.283-0.177 0.37l-0.001 0.001zM10.826 11.904c-0.056 0.028-0.122 0.045-0.192 0.045-0.156 0-0.293-0.082-0.369-0.206l-0.001-0.002c-0.013-0.023-0.024-0.046-0.038-0.069l-0.387-0.63h1.086l0.116 0.326c0.016 0.043 0.025 0.093 0.025 0.145 0 0.169-0.097 0.315-0.238 0.387l-0.002 0.001zM8.831 0.816h4.612c0.136 0 0.247 0.11 0.247 0.247v0 8.915c0 0.136-0.11 0.247-0.247 0.247h-4.769c0.060-0.129 0.118-0.236 0.182-0.339l-0.007 0.013 1-1.605c0.146-0.231 0.233-0.512 0.233-0.813 0-0.748-0.534-1.371-1.242-1.509l-0.010-0.002zM6.624 1.063c0 0 0 0 0 0 0-0.136 0.109-0.246 0.245-0.247h1.143v5.224c-0.32 0.121-0.581 0.336-0.757 0.611l-0.004 0.006-0.622 0.979z"></path>
</svg>
