<!-- Generated by IcoMoon.io -->
<svg version="1.1" xmlns="http://www.w3.org/2000/svg" width="16" height="16" viewBox="0 0 16 16">
<title>schedules-maps-color</title>
<path fill="#0097d0" d="M14.792 4.568l-1.204-0.195c-0.062 0.278-0.127 0.506-0.204 0.729l0.014-0.048 1.279 0.207c0.348 0.055 0.611 0.352 0.612 0.712v8.653c0 0.002 0 0.005 0 0.007 0 0.060-0.029 0.112-0.074 0.145l-0.001 0c-0.031 0.026-0.071 0.043-0.116 0.043h-0c-0.018-0-0.036-0.002-0.053-0.007l0.002 0-4.025-0.943v-4.778c-0.031 0.038-0.061 0.076-0.091 0.112l-0.62 0.753v3.908l-4.622 1.011v-9.56l1.135-0.161c-0.064-0.173-0.133-0.401-0.19-0.633l-0.010-0.048-1.259 0.179-4.179-1.327c-0.083-0.028-0.179-0.044-0.279-0.044-0.2 0-0.385 0.065-0.536 0.175l0.003-0.002c-0.227 0.16-0.373 0.421-0.373 0.716 0 0.003 0 0.006 0 0.009v-0 8.422c-0 0.004-0 0.008-0 0.012 0 0.593 0.369 1.101 0.891 1.304l0.010 0.003 4.307 1.721c0.012 0.005 0.026 0.009 0.041 0.012l0.002 0c0.006 0 0.013 0.004 0.019 0.005 0.019 0.004 0.042 0.006 0.064 0.006 0.027 0 0.053-0.003 0.078-0.009l-0.002 0 5.254-1.15 4.219 0.989c0.065 0.016 0.139 0.025 0.215 0.025h0c0.211-0 0.405-0.073 0.558-0.196l-0.002 0.001c0.211-0.162 0.345-0.413 0.345-0.697 0-0.002-0-0.005-0-0.007v0-8.654c-0.001-0.709-0.521-1.297-1.2-1.404l-0.008-0.001zM4.978 14.795l-3.811-1.524c-0.269-0.102-0.456-0.357-0.456-0.656 0-0.004 0-0.009 0-0.013l-0 0.001v-8.422c-0-0.002-0-0.005-0-0.007 0-0.062 0.032-0.117 0.080-0.15l0.001-0c0.030-0.024 0.069-0.038 0.111-0.039h0c0.024 0 0.047 0.004 0.068 0.011l-0.002-0 4.010 1.273z"></path>
<path fill="#a5cf4c" d="M10.040 9.207v0c-0 0-0 0-0 0-0.116 0-0.219-0.053-0.288-0.136l-0.001-0.001c-1.314-1.617-4.133-5.615-1.931-7.817 0.568-0.568 1.353-0.919 2.22-0.919s1.652 0.351 2.22 0.919v0c2.203 2.203-0.617 6.2-1.931 7.817-0.069 0.084-0.172 0.137-0.288 0.137-0 0-0 0-0 0v0zM10.040 1.077c-0.003-0-0.006-0-0.008-0-0.659 0-1.255 0.268-1.686 0.7l-0 0c-1.663 1.663 0.582 5.015 1.694 6.459 1.114-1.444 3.357-4.794 1.695-6.457-0.431-0.433-1.028-0.701-1.687-0.701-0.002 0-0.005 0-0.008 0h0zM10.040 5.126c-0.931-0-1.686-0.755-1.686-1.686s0.755-1.686 1.686-1.686 1.686 0.755 1.686 1.686c0 0.466-0.189 0.887-0.494 1.192v0c-0.303 0.304-0.723 0.492-1.186 0.492-0.002 0-0.004 0-0.006-0h0zM10.040 2.497c-0 0-0 0-0 0-0.521 0-0.943 0.422-0.943 0.943s0.422 0.943 0.943 0.943c0.521 0 0.943-0.422 0.943-0.943 0-0.26-0.105-0.496-0.276-0.666v0c-0.17-0.171-0.405-0.276-0.665-0.276-0.001 0-0.001 0-0.002 0h0z"></path>
</svg>
