<!-- Generated by IcoMoon.io -->
<svg version="1.1" xmlns="http://www.w3.org/2000/svg" width="16" height="16" viewBox="0 0 16 16">
<title>search-gray</title>
<path fill="#8a8b8a" d="M6.444 0c-0.003 0-0.007-0-0.011-0-3.559 0-6.444 2.885-6.444 6.444s2.885 6.444 6.444 6.444c1.547 0 2.967-0.545 4.077-1.454l-0.011 0.009 4.361 4.361c0.121 0.121 0.288 0.196 0.472 0.196s0.352-0.075 0.472-0.196l0-0c0.121-0.12 0.195-0.285 0.195-0.469s-0.075-0.349-0.195-0.469l-4.361-4.361c0.899-1.099 1.444-2.518 1.444-4.065 0-3.557-2.884-6.441-6.441-6.441-0.001 0-0.002 0-0.003 0h0zM6.444 1.333c2.823 0 5.111 2.288 5.111 5.111s-2.288 5.111-5.111 5.111c-2.823 0-5.111-2.288-5.111-5.111v0c0-0.003-0-0.006-0-0.010 0-2.817 2.284-5.101 5.101-5.101 0.004 0 0.007 0 0.011 0h-0.001z"></path>
</svg>
