<!-- Generated by IcoMoon.io -->
<svg version="1.1" xmlns="http://www.w3.org/2000/svg" width="16" height="16" viewBox="0 0 16 16">
<title>shopping-cart-white</title>
<path fill="#fff" d="M15.014 12.824c0-0.87-0.705-1.575-1.575-1.575s-1.575 0.705-1.575 1.575c0 0.87 0.705 1.575 1.575 1.575v0c0.87 0 1.575-0.705 1.575-1.575v0zM12.571 12.824c0-0.479 0.389-0.868 0.868-0.868s0.868 0.389 0.868 0.868c0 0.479-0.389 0.868-0.868 0.868v0c-0.479 0-0.868-0.389-0.868-0.868v0z"></path>
<path fill="#fff" d="M5.522 3.972l-0.244-1.009c-0.23-0.793-0.951-1.363-1.804-1.363-0.012 0-0.023 0-0.034 0l0.002-0h-1.013c-0.006-0-0.013-0.001-0.019-0.001-0.196 0-0.355 0.159-0.355 0.355s0.159 0.355 0.355 0.355c0.007 0 0.014-0 0.020-0.001l-0.001 0h1.013c0.005-0 0.011-0 0.018-0 0.512 0 0.945 0.34 1.085 0.807l0.002 0.008 0.281 1.115c-0.012 0.024-0.019 0.052-0.019 0.081 0 0.003 0 0.005 0 0.007l-0-0c0 0.095 0.036 0.182 0.094 0.248l-0-0 1.349 5.293h6.561c0.014 0 0.031 0.001 0.047 0.001 1.007 0 1.857-0.674 2.123-1.596l0.004-0.016 1.125-4.284zM14.275 8.079c-0.182 0.629-0.753 1.081-1.43 1.081-0.011 0-0.023-0-0.034-0l0.002 0h-5.961l-1.143-4.48h9.447z"></path>
<path fill="#fff" d="M9.121 12.824c0-0.87-0.705-1.575-1.575-1.575s-1.575 0.705-1.575 1.575c0 0.87 0.705 1.575 1.575 1.575v0c0.87 0 1.575-0.705 1.575-1.575v0zM6.677 12.824c0-0.479 0.388-0.868 0.868-0.868s0.868 0.389 0.868 0.868c0 0.479-0.389 0.868-0.868 0.868v0c-0.478-0.002-0.865-0.389-0.865-0.868 0 0 0 0 0 0v0z"></path>
<path fill="#fff" d="M1.417 5.145c0 0.196 0.159 0.354 0.354 0.354h1.49c0.196 0 0.354-0.159 0.354-0.354s-0.159-0.354-0.354-0.354h-1.49c-0.196 0-0.354 0.159-0.354 0.354v0z"></path>
<path fill="#fff" d="M0.354 7.925h3.435c0.196 0 0.354-0.159 0.354-0.354s-0.159-0.354-0.354-0.354h-3.435c-0.196 0-0.354 0.159-0.354 0.354s0.159 0.354 0.354 0.354v0z"></path>
<path fill="#fff" d="M4.851 9.997c0-0.196-0.159-0.354-0.354-0.354v0h-2.373c-0.196 0-0.354 0.159-0.354 0.354s0.159 0.354 0.354 0.354h2.372c0 0 0 0 0.001 0 0.196 0 0.354-0.159 0.354-0.354 0 0 0 0 0 0v0z"></path>
</svg>
