<!-- Generated by IcoMoon.io -->
<svg version="1.1" xmlns="http://www.w3.org/2000/svg" width="16" height="16" viewBox="0 0 16 16">
<title>store-white</title>
<path fill="#fff" d="M15.373 7.959h-14.745v-1.248h14.745zM14.592 14.422h-8.138v-4.751c0-0 0-0 0-0 0-0.173-0.14-0.314-0.314-0.314h-3.074c-0.173 0-0.314 0.141-0.314 0.314 0 0 0 0 0 0v-0 4.751h-1.333v-5.836h13.172zM3.38 9.987h2.447v4.436h-2.447zM2.086 3.192h11.8l1.314 2.891h-14.403zM2.196 1.629h11.639v0.935h-11.639zM16 6.387c0-0.004 0-0.009 0-0.013s0-0.017-0.003-0.025 0-0.007 0-0.010c-0.005-0.026-0.012-0.050-0.022-0.072l0.001 0.002v-0.003l-1.518-3.33c0.004-0.017 0.006-0.037 0.006-0.058v-1.564c0-0 0-0 0-0 0-0.173-0.14-0.314-0.314-0.314h-12.267c-0.173 0-0.314 0.141-0.314 0.314 0 0 0 0 0 0v-0 1.497l-1.541 3.458c-0.004 0.009-0.009 0.021-0.012 0.033l-0.001 0.002v0.002c-0.003 0.009-0.005 0.020-0.007 0.032l-0 0.002c0 0.004 0 0.007 0 0.011s-0.007 0.018-0.007 0.026 0 0.009 0 0.013 0 0.006 0 0.008v1.876c0 0 0 0 0 0 0 0.173 0.14 0.314 0.314 0.314h0.477v6.149c0 0 0 0 0 0 0 0.173 0.14 0.314 0.314 0.314h13.8c0.173-0 0.314-0.141 0.314-0.314 0-0 0-0 0-0v0-6.15h0.467c0 0 0.001 0 0.001 0 0.173 0 0.313-0.14 0.314-0.313v-1.876c0-0.003 0-0.006 0-0.009zM8.314 9.987h4.5v2.631h-4.5zM8 13.246h5.126c0.173-0 0.314-0.141 0.314-0.314 0-0 0-0 0-0v0-3.26c0-0 0-0 0-0 0-0.173-0.14-0.314-0.314-0.314h-5.126c-0.173 0-0.314 0.141-0.314 0.314 0 0 0 0 0 0v-0 3.26c0 0 0 0 0 0 0 0.173 0.14 0.314 0.314 0.314h0z"></path>
</svg>
