<!-- Generated by IcoMoon.io -->
<svg version="1.1" xmlns="http://www.w3.org/2000/svg" width="11" height="16" viewBox="0 0 11 16">
<title>ticket-white</title>
<path fill="#fff" d="M9.707 0h-1.633c-0.002-0-0.004-0-0.006-0-0.127 0-0.233 0.093-0.253 0.215l-0 0.001c-0.089 0.581-0.375 1.082-0.786 1.445l-0.003 0.002c-0.403 0.356-0.936 0.573-1.519 0.573-0.010 0-0.020-0-0.031-0l0.002 0c-1.182-0.006-2.16-0.872-2.342-2.003l-0.002-0.014c-0.019-0.125-0.125-0.22-0.254-0.22-0.002 0-0.004 0-0.006 0h-1.633c-0.003-0-0.006-0-0.010-0-0.681 0-1.233 0.552-1.233 1.233 0 0 0 0 0 0v0 13.535c0 0 0 0 0 0 0 0.681 0.552 1.233 1.233 1.233 0.004 0 0.007-0 0.011-0h8.466c0.003 0 0.006 0 0.010 0 0.681 0 1.233-0.552 1.233-1.233 0-0 0-0 0-0v0-13.536c0-0 0-0 0-0 0-0.681-0.552-1.233-1.233-1.233-0.004 0-0.007 0-0.011 0h0.001zM9.707 15.476h-8.464c-0.003 0-0.007 0-0.010 0-0.391 0-0.708-0.317-0.708-0.707v-2.088l2.115-0.014c0.147-0.001 0.266-0.12 0.266-0.268s-0.12-0.268-0.268-0.268c-0.001 0-0.001 0-0.002 0h-0.002l-2.11 0.025v-10.924c0.001-0.391 0.317-0.707 0.708-0.707 0.004 0 0.007 0 0.011 0h1.413c0.313 1.288 1.453 2.231 2.815 2.238h0.001c0.012 0 0.026 0 0.040 0 0.714 0 1.366-0.265 1.863-0.703l-0.003 0.003c0.448-0.396 0.772-0.922 0.915-1.518l0.004-0.020h1.415c0.003-0 0.007-0 0.010-0 0.391 0 0.708 0.317 0.708 0.707v10.924l-2.144-0.025c-0.145 0.002-0.262 0.121-0.262 0.267 0 0 0 0 0 0v0c-0 0.001-0 0.002-0 0.003 0 0.144 0.116 0.261 0.259 0.264h0l2.147 0.017v2.087c-0.002 0.39-0.318 0.705-0.708 0.705-0.003 0-0.007-0-0.010-0h0.001z"></path>
<path fill="#fff" d="M6.636 12.186h-2.355c-0.133 0.005-0.239 0.114-0.239 0.248s0.106 0.243 0.239 0.248l0 0h2.355c0.003 0 0.006 0 0.009 0 0.137 0 0.248-0.111 0.248-0.248s-0.111-0.248-0.248-0.248c-0.003 0-0.006 0-0.010 0l0-0z"></path>
<path fill="#fff" d="M4.352 8.832c0.361 0 0.653-0.292 0.653-0.653s-0.292-0.653-0.653-0.653c-0.361 0-0.653 0.292-0.653 0.653v0c0 0.361 0.292 0.653 0.653 0.653v0zM4.352 8.023c0.087 0 0.157 0.070 0.157 0.157s-0.070 0.157-0.157 0.157c-0.087 0-0.157-0.070-0.157-0.157v0c0-0.087 0.070-0.157 0.157-0.157v0z"></path>
<path fill="#fff" d="M6.599 8.832c0.361 0 0.653-0.292 0.653-0.653s-0.292-0.653-0.653-0.653c-0.361 0-0.653 0.292-0.653 0.653v0c0 0.361 0.292 0.653 0.653 0.653v0zM6.599 8.023c0.087 0 0.157 0.070 0.157 0.157s-0.070 0.157-0.157 0.157c-0.087 0-0.157-0.070-0.157-0.157v0c0-0.087 0.070-0.157 0.157-0.157v0z"></path>
<path fill="#fff" d="M7.531 9.592h0.085c0.003 0 0.006 0 0.009 0 0.211 0 0.404-0.078 0.551-0.208l-0.001 0.001c0.14-0.123 0.229-0.302 0.231-0.502v-3.306c-0.010-0.313-0.218-0.575-0.502-0.665l-0.005-0.001-2.14-0.74c-0.085-0.030-0.183-0.048-0.286-0.048-0.101 0-0.197 0.017-0.287 0.048l0.006-0.002-2.139 0.738c-0.286 0.098-0.491 0.358-0.507 0.669l-0 0.002v3.306c0.002 0.2 0.091 0.379 0.23 0.502l0.001 0.001c0.146 0.129 0.339 0.207 0.55 0.207 0.003 0 0.006-0 0.009-0h0.085l-0.562 0.733c-0.030 0.038-0.049 0.088-0.049 0.141 0 0.043 0.012 0.083 0.032 0.117l-0.001-0.001c0.053 0.081 0.144 0.134 0.247 0.134 0.090 0 0.17-0.040 0.224-0.103l0-0 0.215-0.276h3.898l0.215 0.276c0.055 0.065 0.136 0.105 0.227 0.105 0.058 0 0.113-0.017 0.158-0.046l-0.001 0.001c0.071-0.041 0.118-0.118 0.118-0.205 0-0.054-0.018-0.104-0.049-0.144l0 0.001zM7.855 5.899v0.745h-4.759v-0.745zM5.388 4.633c0.026-0.009 0.056-0.014 0.087-0.014s0.061 0.005 0.089 0.015l-0.002-0.001 2.141 0.733c0.028 0.010 0.053 0.036 0.074 0.036h-4.603c0.022 0 0.046-0.026 0.074-0.036zM3.095 8.881v-1.742h4.758v1.742c0 0 0 0 0 0 0 0.060-0.027 0.115-0.069 0.151l-0 0c-0.044 0.038-0.101 0.061-0.164 0.061-0.002 0-0.004-0-0.006-0h-4.281c-0.002 0-0.003 0-0.005 0-0.063 0-0.12-0.023-0.164-0.062l0 0c-0.042-0.037-0.069-0.090-0.069-0.15v-0zM3.907 9.839l0.182-0.248h2.77l0.182 0.248z"></path>
</svg>
