<!-- Generated by IcoMoon.io -->
<svg version="1.1" xmlns="http://www.w3.org/2000/svg" width="16" height="16" viewBox="0 0 16 16">
<title>twitter-gray</title>
<path fill="#8a8b8a" d="M7.167 11.167c-1.267 0-2.267-0.233-2.767-0.6v0 0c-0.1-0.1-0.167-0.267-0.1-0.4v0c0.067-0.133 0.2-0.233 0.367-0.233 0.3 0 0.6-0.033 0.867-0.133-0.4-0.2-0.733-0.567-0.867-1-0.067-0.167 0-0.333 0.133-0.4 0.033-0.033 0.067-0.033 0.1-0.067-0.233-0.267-0.4-0.567-0.5-0.867v0 0c-0.033-0.167 0.033-0.3 0.167-0.4 0.067-0.033 0.1-0.033 0.167-0.033-0.067-0.133-0.1-0.267-0.133-0.433-0.067-0.4 0-0.833 0.2-1.2l0.033-0.1c0.067-0.133 0.233-0.2 0.367-0.133 0.033 0 0.033 0.033 0.067 0.067l0.1 0.1c0.6 0.667 1.433 1.133 2.333 1.267 0.033-0.4 0.233-0.767 0.5-1.067 0.333-0.333 0.767-0.533 1.267-0.567v0c0.367 0.033 0.733 0.167 1.033 0.333 0.233-0.067 0.5-0.2 0.767-0.3 0.133-0.067 0.3-0.033 0.4 0.067s0.133 0.267 0.067 0.367c-0.033 0.067-0.033 0.1-0.067 0.167 0.033 0.033 0.067 0.033 0.1 0.067 0.1 0.1 0.133 0.233 0.1 0.367v0c-0.1 0.333-0.3 0.6-0.6 0.8-0.033 2.367-1.867 4.333-4.1 4.333zM4.833 10.3c0.467 0.267 1.3 0.4 2.333 0.4 1 0 1.933-0.433 2.6-1.167 0.7-0.767 1.1-1.8 1.1-2.867v0c0-0.1 0.067-0.2 0.133-0.233 0.167-0.1 0.333-0.267 0.4-0.467-0.133 0.033-0.267-0.067-0.3-0.233 0-0.067 0-0.133 0.033-0.2s0.067-0.1 0.1-0.167c-0.233 0.1-0.467 0.2-0.667 0.267-0.067 0.033-0.167 0-0.233-0.033-0.267-0.167-0.567-0.267-0.9-0.333-0.767 0.033-1.333 0.667-1.333 1.4 0 0.133-0.133 0.267-0.267 0.267-0.033 0-0.033 0-0.067 0-1.033-0.133-1.967-0.6-2.667-1.333-0.1 0.233-0.133 0.5-0.1 0.767 0.067 0.267 0.2 0.533 0.4 0.733 0.1 0.1 0.1 0.267-0.033 0.367-0.067 0.067-0.167 0.067-0.233 0.067-0.1-0.033-0.167-0.067-0.233-0.1 0.167 0.367 0.433 0.667 0.767 0.867 0.133 0.067 0.167 0.233 0.067 0.367-0.067 0.067-0.133 0.133-0.233 0.1-0.133 0-0.233-0.033-0.333-0.067 0.167 0.367 0.533 0.633 0.967 0.667 0.133 0.033 0.233 0.167 0.2 0.3 0 0.067-0.067 0.133-0.133 0.2-0.433 0.3-0.9 0.433-1.367 0.433z"></path>
<path fill="#8a8b8a" d="M8 16c-4.4 0-8-3.6-8-8s3.6-8 8-8 8 3.6 8 8-3.6 8-8 8zM8 0.667c-4.033 0-7.333 3.3-7.333 7.333s3.3 7.333 7.333 7.333 7.333-3.3 7.333-7.333-3.3-7.333-7.333-7.333z"></path>
</svg>
