<!-- Generated by IcoMoon.io -->
<svg version="1.1" xmlns="http://www.w3.org/2000/svg" width="16" height="16" viewBox="0 0 16 16">
<title>youtube-gray</title>
<path fill="#8a8b8a" d="M9.269 7.998l-1.7-0.933c-0.167-0.067-0.333-0.033-0.433 0.133-0.033 0.033-0.033 0.1-0.033 0.133v1.833c0 0.167 0.133 0.3 0.3 0.3 0.067 0 0.1 0 0.133-0.033l1.7-0.9c0.167-0.067 0.2-0.267 0.133-0.433 0-0.033-0.067-0.067-0.1-0.1v0zM7.569 8.965v-1.4l1.267 0.7-1.267 0.7z"></path>
<path fill="#8a8b8a" d="M11.869 6.798v0c-0.033-0.333-0.133-0.633-0.333-0.9-0.233-0.233-0.5-0.367-0.833-0.4h-0.033c-1.033-0.067-2.567-0.067-2.6-0.067v0c0 0-1.533 0-2.567 0.1v0h-0.033c-0.333 0-0.633 0.167-0.833 0.4-0.2 0.267-0.3 0.567-0.333 0.867v0c0 0.033-0.067 0.633-0.067 1.267v0.567c0 0.6 0.067 1.233 0.067 1.267v0c0.033 0.333 0.133 0.633 0.333 0.867 0.233 0.233 0.533 0.367 0.867 0.367 0.033 0 0.067 0 0.067 0h0.033c0.6 0.067 2.433 0.067 2.5 0.1v0c0 0 1.533 0 2.567-0.1v0h0.033c0.3-0.033 0.6-0.167 0.8-0.4 0.2-0.267 0.3-0.567 0.333-0.867v0c0-0.033 0.067-0.633 0.067-1.267v-0.533c0.033-0.633-0.033-1.233-0.033-1.267zM11.469 8.632c0 0.567-0.033 1.167-0.067 1.2-0.033 0.233-0.1 0.433-0.233 0.633-0.133 0.167-0.333 0.233-0.533 0.233h-0.033c-0.967 0.067-2.467 0.067-2.533 0.067s-1.9-0.033-2.467-0.067c-0.033 0-0.067 0-0.1 0-0.2 0-0.433-0.1-0.567-0.233v0c-0.133-0.2-0.2-0.4-0.2-0.633 0-0.033-0.067-0.633-0.067-1.2v-0.567c0-0.567 0.033-1.167 0.067-1.2 0.033-0.233 0.1-0.433 0.233-0.633 0.133-0.167 0.333-0.233 0.533-0.267h0.033c1-0.067 2.5-0.067 2.533-0.067s1.533 0 2.533 0.067h0.033c0.2 0 0.4 0.1 0.567 0.233v0c0.133 0.2 0.2 0.4 0.2 0.633 0 0.033 0.067 0.633 0.067 1.2v0.6z"></path>
<path fill="#8a8b8a" d="M8 16c-4.4 0-8-3.6-8-8s3.6-8 8-8 8 3.6 8 8-3.6 8-8 8zM8 0.667c-4.033 0-7.333 3.3-7.333 7.333s3.3 7.333 7.333 7.333 7.333-3.3 7.333-7.333-3.3-7.333-7.333-7.333z"></path>
</svg>
