<svg xmlns="http://www.w3.org/2000/svg" viewBox="0 0 8 6"><defs><style>.cls-1{fill:#006f45;}.cls-2{fill:#b3d23e;}</style></defs><title>NiceRideGreen</title><g id="Layer_2" data-name="Layer 2"><g id="Layer_1-2" data-name="Layer 1"><g id="NiceRide"><rect class="cls-1" width="8" height="5" rx="1" ry="1"/><path class="cls-2" d="M6.14,1.43H6V1.3a.6.6,0,0,0-.6-.57H4.05v2a.07.07,0,0,1,0,0,.06.06,0,0,1-.09,0,.07.07,0,0,1,0,0V1.33a.6.6,0,0,0-.6-.6H2.47a.64.64,0,0,0-.35.11A.35.35,0,0,0,1.86.73H1.64V1h.16c.11,0,.11,0,.11.05v.34h0a1.47,1.47,0,1,0,.4.06l-.06,0V1.3A.26.26,0,0,1,2.48,1h.87a.29.29,0,0,1,.27.29V2.77A.39.39,0,0,0,3.72,3,.37.37,0,0,0,4,3.13.38.38,0,0,0,4.27,3a.38.38,0,0,0,.09-.24V2.18h.48a1.47,1.47,0,1,0,1.29-.76Zm-1,.81h0l.57.66A.41.41,0,0,0,6,3l.12,0H6.3v-.3H6.08l0,0-.49-.56a.63.63,0,0,0,.23-.08A.58.58,0,0,0,6,1.75h.13a1.16,1.16,0,0,1,0,2.32A1.17,1.17,0,0,1,5,2.9a1.16,1.16,0,0,1,.2-.65Zm.56-.66a.29.29,0,0,1-.29.29H4.36V1H5.45a.29.29,0,0,1,.29.29ZM2.23,1.8a1.16,1.16,0,1,1-.37-.06h0v.9c0,.09,0,.11-.14.11H1.64v.31h.23a.32.32,0,0,0,.26-.11.34.34,0,0,0,.08-.22V1.79Z"/><polygon class="cls-1" points="5 5 4 6 3 5 5 5"/></g></g></g></svg>