<!-- Generated by IcoMoon.io -->
<svg version="1.1" xmlns="http://www.w3.org/2000/svg" width="16" height="16" viewBox="0 0 16 16">
<title>parking-blue</title>
<path fill="#0053a0" d="M8.502 1c4.143 0 7.502 3.359 7.502 7.502s-3.359 7.502-7.502 7.502c-4.143 0-7.502-3.359-7.502-7.502v0c0-4.143 3.359-7.502 7.502-7.502v0z"></path>
<path fill="#0053a0" d="M8.002 0c-4.419 0-8.002 3.583-8.002 8.002s3.583 8.002 8.002 8.002c4.419 0 8.002-3.583 8.002-8.002v0c0-4.419-3.583-8.002-8.002-8.002v0zM8.002 14.664c-3.681 0-6.665-2.984-6.665-6.665s2.984-6.665 6.665-6.665c3.681 0 6.665 2.984 6.665 6.665 0 0.001 0 0.002 0 0.003v-0c-0.002 3.679-2.985 6.661-6.665 6.662h-0z"></path>
<path fill="#fff" d="M8.667 3.999h-2.667v8.002h1.333v-2.67h1.333c1.472 0 2.666-1.194 2.666-2.666s-1.194-2.666-2.666-2.666v0zM8.667 8h-1.333v-2.668h1.333c0.011-0 0.024-0 0.037-0 0.736 0 1.333 0.597 1.333 1.333s-0.597 1.333-1.333 1.333c-0.013 0-0.026-0-0.038-0.001l0.002 0z"></path>
</svg>
