<svg xmlns="http://www.w3.org/2000/svg" xmlns:xlink="http://www.w3.org/1999/xlink" width="24" height="30.535" viewBox="0 0 24 30.535"><defs><style>.a{fill:none;}.b{clip-path:url(#a);}.c{fill:#fff;}.d{fill:#ed1b2e;}</style><clipPath id="a"><rect class="a" width="24" height="30.534"/></clipPath></defs><g class="b"><path class="c" d="M22.7,0h0a12,12,0,0,0-12,12,11.058,11.058,0,0,0,.947,4.458,30.07,30.07,0,0,0,4,6.626c1.71,2.382,3.634,4.824,5.038,6.962a1.077,1.077,0,0,0,.916.489,1.028,1.028,0,0,0,.824-.4h0c1.8-2.107,4.244-4.55,6.412-6.931,2.168-2.351,4.092-4.55,4.855-6.626A10.91,10.91,0,0,0,34.7,12,12,12,0,0,0,22.7,0Z" transform="translate(-10.7)"/><path class="d" d="M22.7,0a12,12,0,0,0-12,12,11.058,11.058,0,0,0,.947,4.458,30.07,30.07,0,0,0,4,6.626c1.71,2.382,3.634,4.824,5.038,6.962a1.077,1.077,0,0,0,.916.489,1.028,1.028,0,0,0,.824-.4h0c1.8-2.107,4.244-4.55,6.412-6.931,2.168-2.351,4.092-4.55,4.855-6.626A10.91,10.91,0,0,0,34.7,12a12,12,0,0,0-12-12Zm0,2.168a9.774,9.774,0,0,1,9.8,9.8,8.42,8.42,0,0,1-.824,3.725.107.107,0,0,1-.031.061h0c-.489,1.374-2.29,3.6-4.427,5.924-1.832,1.985-3.786,4.031-5.527,5.985-1.344-1.924-2.87-3.939-4.275-5.924A31.2,31.2,0,0,1,13.692,15.6a.107.107,0,0,0-.031-.061h0a8.706,8.706,0,0,1-.794-3.634A9.826,9.826,0,0,1,22.7,2.168Zm0,4.366A5.466,5.466,0,1,0,28.166,12,5.48,5.48,0,0,0,22.7,6.534Zm0,2.2A3.267,3.267,0,1,1,19.433,12,3.251,3.251,0,0,1,22.7,8.733Z" transform="translate(-10.7)"/></g></svg>